<svg width="800" height="512" viewBox="0 0 800 512" fill="none" xmlns="http://www.w3.org/2000/svg">
<rect width="800" height="512" fill="white"/>
<g filter="url(#filter0_i_10_14)">
<rect width="100" height="100" transform="matrix(0.866025 0.5 -2.20305e-08 1 33 194)" fill="#CDBABA"/>
<rect width="100" height="100" transform="matrix(0.866025 0.5 -2.20305e-08 1 33 194)" fill="#FF6A00"/>
</g>
<g filter="url(#filter1_i_10_14)">
<rect width="100" height="100" transform="matrix(0.866025 -0.5 2.20305e-08 1 122 244)" fill="#CDBABA"/>
<rect width="100" height="100" transform="matrix(0.866025 -0.5 2.20305e-08 1 122 244)" fill="#111111"/>
</g>
<g filter="url(#filter2_i_10_14)">
<rect width="100" height="100" transform="matrix(0.866025 0.5 -0.866025 0.5 119.603 144)" fill="#CDBABA"/>
<rect width="100" height="100" transform="matrix(0.866025 0.5 -0.866025 0.5 119.603 144)" fill="#D05908"/>
</g>
<g filter="url(#filter3_i_10_14)">
<path d="M252.606 192V157.7H258.976V192H252.606ZM282.512 165.54C284.603 165.54 286.465 165.948 288.098 166.765C289.764 167.582 291.071 168.839 292.018 170.538C292.966 172.204 293.439 174.36 293.439 177.006V192H287.314V177.79C287.314 175.471 286.759 173.739 285.648 172.596C284.57 171.453 283.051 170.881 281.091 170.881C279.654 170.881 278.38 171.175 277.269 171.763C276.159 172.351 275.293 173.233 274.672 174.409C274.084 175.552 273.79 177.006 273.79 178.77V192H267.665V165.834H273.496V172.89L272.467 170.734C273.382 169.068 274.705 167.794 276.436 166.912C278.2 165.997 280.226 165.54 282.512 165.54ZM309.294 192.343C307.106 192.343 304.999 192.065 302.973 191.51C300.981 190.922 299.396 190.22 298.22 189.403L300.572 184.748C301.748 185.499 303.153 186.12 304.786 186.61C306.42 187.1 308.053 187.345 309.686 187.345C311.614 187.345 313.002 187.084 313.851 186.561C314.733 186.038 315.174 185.336 315.174 184.454C315.174 183.735 314.88 183.196 314.292 182.837C313.704 182.445 312.937 182.151 311.989 181.955C311.042 181.759 309.98 181.579 308.804 181.416C307.661 181.253 306.501 181.04 305.325 180.779C304.182 180.485 303.137 180.077 302.189 179.554C301.242 178.999 300.474 178.264 299.886 177.349C299.298 176.434 299.004 175.226 299.004 173.723C299.004 172.057 299.478 170.62 300.425 169.411C301.373 168.17 302.696 167.222 304.394 166.569C306.126 165.883 308.167 165.54 310.519 165.54C312.283 165.54 314.064 165.736 315.86 166.128C317.657 166.52 319.143 167.075 320.319 167.794L317.967 172.449C316.726 171.698 315.468 171.191 314.194 170.93C312.953 170.636 311.712 170.489 310.47 170.489C308.608 170.489 307.22 170.767 306.305 171.322C305.423 171.877 304.982 172.58 304.982 173.429C304.982 174.213 305.276 174.801 305.864 175.193C306.452 175.585 307.22 175.895 308.167 176.124C309.115 176.353 310.16 176.549 311.303 176.712C312.479 176.843 313.639 177.055 314.782 177.349C315.926 177.643 316.971 178.051 317.918 178.574C318.898 179.064 319.682 179.766 320.27 180.681C320.858 181.596 321.152 182.788 321.152 184.258C321.152 185.891 320.662 187.312 319.682 188.521C318.735 189.73 317.379 190.677 315.615 191.363C313.851 192.016 311.744 192.343 309.294 192.343ZM336.276 192.343C333.402 192.343 331.18 191.608 329.612 190.138C328.044 188.635 327.26 186.43 327.26 183.523V160.052H333.385V183.376C333.385 184.617 333.696 185.581 334.316 186.267C334.97 186.953 335.868 187.296 337.011 187.296C338.383 187.296 339.527 186.937 340.441 186.218L342.156 190.579C341.438 191.167 340.556 191.608 339.51 191.902C338.465 192.196 337.387 192.343 336.276 192.343ZM322.948 170.93V166.03H340.392V170.93H322.948ZM347.195 192V165.834H353.32V192H347.195ZM350.282 161.522C349.138 161.522 348.191 161.163 347.44 160.444C346.721 159.725 346.362 158.86 346.362 157.847C346.362 156.802 346.721 155.936 347.44 155.25C348.191 154.531 349.138 154.172 350.282 154.172C351.425 154.172 352.356 154.515 353.075 155.201C353.826 155.854 354.202 156.687 354.202 157.7C354.202 158.778 353.842 159.693 353.124 160.444C352.405 161.163 351.458 161.522 350.282 161.522ZM371.208 192.343C368.333 192.343 366.112 191.608 364.544 190.138C362.976 188.635 362.192 186.43 362.192 183.523V160.052H368.317V183.376C368.317 184.617 368.627 185.581 369.248 186.267C369.901 186.953 370.799 187.296 371.943 187.296C373.315 187.296 374.458 186.937 375.373 186.218L377.088 190.579C376.369 191.167 375.487 191.608 374.442 191.902C373.396 192.196 372.318 192.343 371.208 192.343ZM357.88 170.93V166.03H375.324V170.93H357.88ZM393.2 192.343C390.979 192.343 389.019 191.935 387.32 191.118C385.622 190.269 384.299 188.995 383.351 187.296C382.404 185.565 381.93 183.392 381.93 180.779V165.834H388.055V179.946C388.055 182.298 388.578 184.062 389.623 185.238C390.701 186.381 392.22 186.953 394.18 186.953C395.618 186.953 396.859 186.659 397.904 186.071C398.982 185.483 399.815 184.601 400.403 183.425C401.024 182.249 401.334 180.795 401.334 179.064V165.834H407.459V192H401.628V184.944L402.657 187.1C401.775 188.799 400.485 190.105 398.786 191.02C397.088 191.902 395.226 192.343 393.2 192.343ZM425.328 192.343C422.453 192.343 420.232 191.608 418.664 190.138C417.096 188.635 416.312 186.43 416.312 183.523V160.052H422.437V183.376C422.437 184.617 422.747 185.581 423.368 186.267C424.021 186.953 424.92 187.296 426.063 187.296C427.435 187.296 428.578 186.937 429.493 186.218L431.208 190.579C430.489 191.167 429.607 191.608 428.562 191.902C427.517 192.196 426.439 192.343 425.328 192.343ZM412 170.93V166.03H429.444V170.93H412ZM447.684 192.343C444.777 192.343 442.229 191.771 440.04 190.628C437.884 189.452 436.202 187.851 434.993 185.826C433.817 183.801 433.229 181.498 433.229 178.917C433.229 176.304 433.801 174.001 434.944 172.008C436.12 169.983 437.721 168.398 439.746 167.255C441.804 166.112 444.14 165.54 446.753 165.54C449.301 165.54 451.572 166.095 453.564 167.206C455.557 168.317 457.125 169.885 458.268 171.91C459.412 173.935 459.983 176.32 459.983 179.064C459.983 179.325 459.967 179.619 459.934 179.946C459.934 180.273 459.918 180.583 459.885 180.877H438.08V176.81H456.651L454.25 178.084C454.283 176.581 453.973 175.258 453.319 174.115C452.666 172.972 451.768 172.073 450.624 171.42C449.514 170.767 448.223 170.44 446.753 170.44C445.251 170.44 443.928 170.767 442.784 171.42C441.674 172.073 440.792 172.988 440.138 174.164C439.518 175.307 439.207 176.663 439.207 178.231V179.211C439.207 180.779 439.567 182.167 440.285 183.376C441.004 184.585 442.017 185.516 443.323 186.169C444.63 186.822 446.133 187.149 447.831 187.149C449.301 187.149 450.624 186.92 451.8 186.463C452.976 186.006 454.022 185.287 454.936 184.307L458.219 188.08C457.043 189.452 455.557 190.514 453.76 191.265C451.996 191.984 449.971 192.343 447.684 192.343ZM491.169 192.343C488.49 192.343 486.105 191.771 484.015 190.628C481.924 189.452 480.274 187.851 479.066 185.826C477.857 183.801 477.253 181.498 477.253 178.917C477.253 176.304 477.857 174.001 479.066 172.008C480.274 169.983 481.924 168.398 484.015 167.255C486.105 166.112 488.49 165.54 491.169 165.54C493.88 165.54 496.281 166.112 498.372 167.255C500.495 168.398 502.145 169.966 503.321 171.959C504.529 173.952 505.134 176.271 505.134 178.917C505.134 181.498 504.529 183.801 503.321 185.826C502.145 187.851 500.495 189.452 498.372 190.628C496.281 191.771 493.88 192.343 491.169 192.343ZM491.169 187.1C492.671 187.1 494.011 186.773 495.187 186.12C496.363 185.467 497.277 184.519 497.931 183.278C498.617 182.037 498.96 180.583 498.96 178.917C498.96 177.218 498.617 175.765 497.931 174.556C497.277 173.315 496.363 172.367 495.187 171.714C494.011 171.061 492.688 170.734 491.218 170.734C489.715 170.734 488.376 171.061 487.2 171.714C486.056 172.367 485.142 173.315 484.456 174.556C483.77 175.765 483.427 177.218 483.427 178.917C483.427 180.583 483.77 182.037 484.456 183.278C485.142 184.519 486.056 185.467 487.2 186.12C488.376 186.773 489.699 187.1 491.169 187.1ZM511.824 192V164.364C511.824 161.62 512.624 159.431 514.225 157.798C515.858 156.132 518.177 155.299 521.183 155.299C522.261 155.299 523.273 155.413 524.221 155.642C525.201 155.871 526.017 156.23 526.671 156.72L525.005 161.326C524.547 160.967 524.025 160.705 523.437 160.542C522.849 160.346 522.244 160.248 521.624 160.248C520.35 160.248 519.386 160.607 518.733 161.326C518.079 162.012 517.753 163.057 517.753 164.462V167.402L517.949 170.146V192H511.824ZM507.512 170.93V166.03H524.956V170.93H507.512ZM256.648 304V239.6H284.8C291.792 239.6 297.925 240.949 303.2 243.648C308.475 246.347 312.584 250.088 315.528 254.872C318.472 259.656 319.944 265.299 319.944 271.8C319.944 278.24 318.472 283.883 315.528 288.728C312.584 293.512 308.475 297.253 303.2 299.952C297.925 302.651 291.792 304 284.8 304H256.648ZM268.608 293.88H284.248C289.093 293.88 293.264 292.96 296.76 291.12C300.317 289.28 303.047 286.704 304.948 283.392C306.911 280.08 307.892 276.216 307.892 271.8C307.892 267.323 306.911 263.459 304.948 260.208C303.047 256.896 300.317 254.32 296.76 252.48C293.264 250.64 289.093 249.72 284.248 249.72H268.608V293.88ZM331.552 304V254.872H343.052V304H331.552ZM337.348 246.776C335.201 246.776 333.422 246.101 332.012 244.752C330.662 243.403 329.988 241.777 329.988 239.876C329.988 237.913 330.662 236.288 332.012 235C333.422 233.651 335.201 232.976 337.348 232.976C339.494 232.976 341.242 233.62 342.592 234.908C344.002 236.135 344.708 237.699 344.708 239.6C344.708 241.624 344.033 243.341 342.684 244.752C341.334 246.101 339.556 246.776 337.348 246.776ZM380.41 322.492C375.871 322.492 371.424 321.879 367.07 320.652C362.776 319.487 359.25 317.769 356.49 315.5L361.642 306.852C363.788 308.631 366.487 310.041 369.738 311.084C373.05 312.188 376.392 312.74 379.766 312.74C385.163 312.74 389.119 311.483 391.634 308.968C394.148 306.515 395.406 302.804 395.406 297.836V289.096L396.326 277.964L395.958 266.832V254.872H406.906V296.548C406.906 305.441 404.636 311.973 400.098 316.144C395.559 320.376 388.996 322.492 380.41 322.492ZM378.938 301.792C374.276 301.792 370.044 300.811 366.242 298.848C362.5 296.824 359.526 294.033 357.318 290.476C355.171 286.919 354.098 282.748 354.098 277.964C354.098 273.241 355.171 269.101 357.318 265.544C359.526 261.987 362.5 259.227 366.242 257.264C370.044 255.301 374.276 254.32 378.938 254.32C383.108 254.32 386.85 255.148 390.162 256.804C393.474 258.46 396.111 261.036 398.074 264.532C400.098 268.028 401.11 272.505 401.11 277.964C401.11 283.423 400.098 287.931 398.074 291.488C396.111 294.984 393.474 297.591 390.162 299.308C386.85 300.964 383.108 301.792 378.938 301.792ZM380.686 292.04C383.568 292.04 386.144 291.457 388.414 290.292C390.683 289.065 392.431 287.409 393.658 285.324C394.946 283.177 395.59 280.724 395.59 277.964C395.59 275.204 394.946 272.781 393.658 270.696C392.431 268.549 390.683 266.924 388.414 265.82C386.144 264.655 383.568 264.072 380.686 264.072C377.803 264.072 375.196 264.655 372.866 265.82C370.596 266.924 368.818 268.549 367.53 270.696C366.303 272.781 365.69 275.204 365.69 277.964C365.69 280.724 366.303 283.177 367.53 285.324C368.818 287.409 370.596 289.065 372.866 290.292C375.196 291.457 377.803 292.04 380.686 292.04ZM422.024 304V254.872H433.524V304H422.024ZM427.82 246.776C425.674 246.776 423.895 246.101 422.484 244.752C421.135 243.403 420.46 241.777 420.46 239.876C420.46 237.913 421.135 236.288 422.484 235C423.895 233.651 425.674 232.976 427.82 232.976C429.967 232.976 431.715 233.62 433.064 234.908C434.475 236.135 435.18 237.699 435.18 239.6C435.18 241.624 434.506 243.341 433.156 244.752C431.807 246.101 430.028 246.776 427.82 246.776ZM467.11 304.644C461.713 304.644 457.542 303.264 454.598 300.504C451.654 297.683 450.182 293.543 450.182 288.084V244.016H461.682V287.808C461.682 290.139 462.265 291.948 463.43 293.236C464.657 294.524 466.344 295.168 468.49 295.168C471.066 295.168 473.213 294.493 474.93 293.144L478.15 301.332C476.801 302.436 475.145 303.264 473.182 303.816C471.22 304.368 469.196 304.644 467.11 304.644ZM442.086 264.44V255.24H474.838V264.44H442.086ZM517.878 304V294.064L517.234 291.948V274.56C517.234 271.187 516.222 268.58 514.198 266.74C512.174 264.839 509.108 263.888 504.998 263.888C502.238 263.888 499.509 264.317 496.81 265.176C494.173 266.035 491.934 267.231 490.094 268.764L485.586 260.392C488.224 258.368 491.352 256.865 494.97 255.884C498.65 254.841 502.453 254.32 506.378 254.32C513.493 254.32 518.982 256.037 522.846 259.472C526.772 262.845 528.734 268.089 528.734 275.204V304H517.878ZM502.422 304.644C498.742 304.644 495.522 304.031 492.762 302.804C490.002 301.516 487.856 299.768 486.322 297.56C484.85 295.291 484.114 292.745 484.114 289.924C484.114 287.164 484.758 284.68 486.046 282.472C487.396 280.264 489.573 278.516 492.578 277.228C495.584 275.94 499.57 275.296 504.538 275.296H518.798V282.932H505.366C501.441 282.932 498.804 283.576 497.454 284.864C496.105 286.091 495.43 287.624 495.43 289.464C495.43 291.549 496.258 293.205 497.914 294.432C499.57 295.659 501.87 296.272 504.814 296.272C507.636 296.272 510.15 295.628 512.358 294.34C514.628 293.052 516.253 291.151 517.234 288.636L519.166 295.536C518.062 298.419 516.069 300.657 513.186 302.252C510.365 303.847 506.777 304.644 502.422 304.644ZM543.493 304V235.736H554.993V304H543.493ZM596.617 304V239.6H623.113C628.817 239.6 633.693 240.52 637.741 242.36C641.85 244.2 645.009 246.837 647.217 250.272C649.425 253.707 650.529 257.785 650.529 262.508C650.529 267.231 649.425 271.309 647.217 274.744C645.009 278.117 641.85 280.724 637.741 282.564C633.693 284.343 628.817 285.232 623.113 285.232H603.241L608.577 279.804V304H596.617ZM638.753 304L622.469 280.632H635.257L651.633 304H638.753ZM608.577 281.092L603.241 275.388H622.561C627.835 275.388 631.791 274.253 634.429 271.984C637.127 269.715 638.477 266.556 638.477 262.508C638.477 258.399 637.127 255.24 634.429 253.032C631.791 250.824 627.835 249.72 622.561 249.72H603.241L608.577 243.832V281.092ZM662.806 304V254.872H674.306V304H662.806ZM668.602 246.776C666.455 246.776 664.676 246.101 663.266 244.752C661.916 243.403 661.242 241.777 661.242 239.876C661.242 237.913 661.916 236.288 663.266 235C664.676 233.651 666.455 232.976 668.602 232.976C670.748 232.976 672.496 233.62 673.846 234.908C675.256 236.135 675.962 237.699 675.962 239.6C675.962 241.624 675.287 243.341 673.938 244.752C672.588 246.101 670.81 246.776 668.602 246.776ZM704.579 304.644C700.47 304.644 696.514 304.123 692.711 303.08C688.97 301.976 685.995 300.657 683.787 299.124L688.203 290.384C690.411 291.795 693.049 292.96 696.115 293.88C699.182 294.8 702.249 295.26 705.315 295.26C708.934 295.26 711.541 294.769 713.135 293.788C714.791 292.807 715.619 291.488 715.619 289.832C715.619 288.483 715.067 287.471 713.963 286.796C712.859 286.06 711.418 285.508 709.639 285.14C707.861 284.772 705.867 284.435 703.659 284.128C701.513 283.821 699.335 283.423 697.127 282.932C694.981 282.38 693.018 281.613 691.239 280.632C689.461 279.589 688.019 278.209 686.915 276.492C685.811 274.775 685.259 272.505 685.259 269.684C685.259 266.556 686.149 263.857 687.927 261.588C689.706 259.257 692.19 257.479 695.379 256.252C698.63 254.964 702.463 254.32 706.879 254.32C710.191 254.32 713.534 254.688 716.907 255.424C720.281 256.16 723.071 257.203 725.279 258.552L720.863 267.292C718.533 265.881 716.171 264.931 713.779 264.44C711.449 263.888 709.118 263.612 706.787 263.612C703.291 263.612 700.685 264.133 698.967 265.176C697.311 266.219 696.483 267.537 696.483 269.132C696.483 270.604 697.035 271.708 698.139 272.444C699.243 273.18 700.685 273.763 702.463 274.192C704.242 274.621 706.205 274.989 708.351 275.296C710.559 275.541 712.737 275.94 714.883 276.492C717.03 277.044 718.993 277.811 720.771 278.792C722.611 279.712 724.083 281.031 725.187 282.748C726.291 284.465 726.843 286.704 726.843 289.464C726.843 292.531 725.923 295.199 724.083 297.468C722.305 299.737 719.759 301.516 716.447 302.804C713.135 304.031 709.179 304.644 704.579 304.644ZM746.131 293.052L746.407 278.608L772.075 254.872H785.875L764.071 276.768L757.999 281.828L746.131 293.052ZM736.747 304V235.736H748.247V304H736.747ZM773.823 304L755.883 281.828L763.151 272.628L787.807 304H773.823Z" fill="black"/>
</g>
<path d="M252.606 192H252.106V192.5H252.606V192ZM252.606 157.7V157.2H252.106V157.7H252.606ZM258.976 157.7H259.476V157.2H258.976V157.7ZM258.976 192V192.5H259.476V192H258.976ZM252.606 192H253.106V157.7H252.606H252.106V192H252.606ZM252.606 157.7V158.2H258.976V157.7V157.2H252.606V157.7ZM258.976 157.7H258.476V192H258.976H259.476V157.7H258.976ZM258.976 192V191.5H252.606V192V192.5H258.976V192ZM288.098 166.765L287.875 167.212L287.878 167.214L288.098 166.765ZM292.018 170.538L291.582 170.782L291.584 170.785L292.018 170.538ZM293.439 192V192.5H293.939V192H293.439ZM287.314 192H286.814V192.5H287.314V192ZM285.648 172.596L285.285 172.939L285.29 172.944L285.648 172.596ZM277.269 171.763L277.503 172.205V172.205L277.269 171.763ZM274.672 174.409L274.23 174.176L274.228 174.18L274.672 174.409ZM273.79 192V192.5H274.29V192H273.79ZM267.665 192H267.165V192.5H267.665V192ZM267.665 165.834V165.334H267.165V165.834H267.665ZM273.496 165.834H273.996V165.334H273.496V165.834ZM273.496 172.89L273.045 173.105L273.996 172.89H273.496ZM272.467 170.734L272.029 170.493L271.906 170.718L272.016 170.949L272.467 170.734ZM276.436 166.912L276.663 167.358L276.667 167.356L276.436 166.912ZM282.512 165.54V166.04C284.537 166.04 286.32 166.435 287.875 167.212L288.098 166.765L288.322 166.318C286.61 165.462 284.669 165.04 282.512 165.04V165.54ZM288.098 166.765L287.878 167.214C289.448 167.984 290.682 169.167 291.582 170.782L292.018 170.538L292.455 170.294C291.461 168.511 290.081 167.18 288.319 166.316L288.098 166.765ZM292.018 170.538L291.584 170.785C292.475 172.353 292.939 174.415 292.939 177.006H293.439H293.939C293.939 174.305 293.457 172.055 292.453 170.291L292.018 170.538ZM293.439 177.006H292.939V192H293.439H293.939V177.006H293.439ZM293.439 192V191.5H287.314V192V192.5H293.439V192ZM287.314 192H287.814V177.79H287.314H286.814V192H287.314ZM287.314 177.79H287.814C287.814 175.4 287.243 173.519 286.007 172.248L285.648 172.596L285.29 172.944C286.276 173.959 286.814 175.542 286.814 177.79H287.314ZM285.648 172.596L286.012 172.253C284.817 170.986 283.153 170.381 281.091 170.381V170.881V171.381C282.95 171.381 284.323 171.92 285.285 172.939L285.648 172.596ZM281.091 170.881V170.381C279.584 170.381 278.228 170.69 277.036 171.321L277.269 171.763L277.503 172.205C278.532 171.66 279.724 171.381 281.091 171.381V170.881ZM277.269 171.763L277.036 171.321C275.831 171.959 274.895 172.916 274.23 174.176L274.672 174.409L275.115 174.642C275.691 173.55 276.487 172.743 277.503 172.205L277.269 171.763ZM274.672 174.409L274.228 174.18C273.592 175.416 273.29 176.955 273.29 178.77H273.79H274.29C274.29 177.057 274.576 175.689 275.117 174.638L274.672 174.409ZM273.79 178.77H273.29V192H273.79H274.29V178.77H273.79ZM273.79 192V191.5H267.665V192V192.5H273.79V192ZM267.665 192H268.165V165.834H267.665H267.165V192H267.665ZM267.665 165.834V166.334H273.496V165.834V165.334H267.665V165.834ZM273.496 165.834H272.996V172.89H273.496H273.996V165.834H273.496ZM273.496 172.89L273.948 172.675L272.919 170.519L272.467 170.734L272.016 170.949L273.045 173.105L273.496 172.89ZM272.467 170.734L272.906 170.975C273.771 169.399 275.019 168.195 276.663 167.358L276.436 166.912L276.209 166.466C274.391 167.393 272.993 168.737 272.029 170.493L272.467 170.734ZM276.436 166.912L276.667 167.356C278.349 166.483 280.294 166.04 282.512 166.04V165.54V165.04C280.158 165.04 278.051 165.511 276.206 166.468L276.436 166.912ZM302.973 191.51L302.832 191.99L302.841 191.992L302.973 191.51ZM298.22 189.403L297.774 189.178L297.578 189.566L297.935 189.814L298.22 189.403ZM300.572 184.748L300.842 184.327L300.376 184.029L300.126 184.523L300.572 184.748ZM304.786 186.61L304.93 186.131V186.131L304.786 186.61ZM313.851 186.561L313.596 186.131L313.589 186.135L313.851 186.561ZM314.292 182.837L314.015 183.253L314.023 183.258L314.032 183.264L314.292 182.837ZM308.804 181.416L308.734 181.911L308.736 181.911L308.804 181.416ZM305.325 180.779L305.201 181.263L305.209 181.265L305.217 181.267L305.325 180.779ZM302.189 179.554L301.936 179.985L301.948 179.992L302.189 179.554ZM300.425 169.411L300.819 169.719L300.823 169.714L300.425 169.411ZM304.394 166.569L304.574 167.036L304.579 167.034L304.394 166.569ZM315.86 166.128L315.754 166.617V166.617L315.86 166.128ZM320.319 167.794L320.766 168.019L320.974 167.608L320.58 167.367L320.319 167.794ZM317.967 172.449L317.709 172.877L318.17 173.156L318.414 172.674L317.967 172.449ZM314.194 170.93L314.079 171.417L314.087 171.418L314.094 171.42L314.194 170.93ZM306.305 171.322L306.046 170.895L306.039 170.899L306.305 171.322ZM305.864 175.193L305.587 175.609V175.609L305.864 175.193ZM308.167 176.124L308.05 176.61V176.61L308.167 176.124ZM311.303 176.712L311.233 177.207L311.24 177.208L311.248 177.209L311.303 176.712ZM314.782 177.349L314.907 176.865V176.865L314.782 177.349ZM317.918 178.574L317.677 179.012L317.686 179.017L317.695 179.021L317.918 178.574ZM319.682 188.521L319.294 188.206L319.289 188.213L319.682 188.521ZM315.615 191.363L315.789 191.832L315.797 191.829L315.615 191.363ZM309.294 192.343V191.843C307.149 191.843 305.086 191.571 303.106 191.028L302.973 191.51L302.841 191.992C304.911 192.56 307.063 192.843 309.294 192.843V192.343ZM302.973 191.51L303.115 191.03C301.153 190.451 299.623 189.768 298.506 188.992L298.22 189.403L297.935 189.814C299.17 190.671 300.809 191.393 302.832 191.99L302.973 191.51ZM298.22 189.403L298.667 189.628L301.019 184.973L300.572 184.748L300.126 184.523L297.774 189.178L298.22 189.403ZM300.572 184.748L300.303 185.169C301.526 185.95 302.975 186.588 304.643 187.089L304.786 186.61L304.93 186.131C303.332 185.652 301.971 185.048 300.842 184.327L300.572 184.748ZM304.786 186.61L304.643 187.089C306.321 187.592 308.002 187.845 309.686 187.845V187.345V186.845C308.104 186.845 306.519 186.608 304.93 186.131L304.786 186.61ZM309.686 187.345V187.845C311.634 187.845 313.141 187.585 314.113 186.987L313.851 186.561L313.589 186.135C312.863 186.582 311.593 186.845 309.686 186.845V187.345ZM313.851 186.561L314.106 186.991C315.111 186.396 315.674 185.544 315.674 184.454H315.174H314.674C314.674 185.128 314.356 185.681 313.597 186.131L313.851 186.561ZM315.174 184.454H315.674C315.674 183.57 315.297 182.865 314.553 182.41L314.292 182.837L314.032 183.264C314.463 183.528 314.674 183.9 314.674 184.454H315.174ZM314.292 182.837L314.57 182.421C313.913 181.983 313.079 181.67 312.091 181.465L311.989 181.955L311.888 182.445C312.794 182.632 313.496 182.907 314.015 183.253L314.292 182.837ZM311.989 181.955L312.091 181.465C311.131 181.267 310.058 181.085 308.873 180.921L308.804 181.416L308.736 181.911C309.903 182.073 310.954 182.251 311.888 182.445L311.989 181.955ZM308.804 181.416L308.875 180.921C307.745 180.76 306.598 180.55 305.434 180.291L305.325 180.779L305.217 181.267C306.405 181.531 307.577 181.746 308.734 181.911L308.804 181.416ZM305.325 180.779L305.45 180.295C304.344 180.01 303.338 179.617 302.431 179.116L302.189 179.554L301.948 179.992C302.935 180.537 304.02 180.96 305.201 181.263L305.325 180.779ZM302.189 179.554L302.442 179.123C301.562 178.607 300.852 177.927 300.307 177.079L299.886 177.349L299.466 177.619C300.097 178.601 300.922 179.391 301.937 179.985L302.189 179.554ZM299.886 177.349L300.307 177.079C299.787 176.27 299.504 175.165 299.504 173.723H299.004H298.504C298.504 175.286 298.81 176.599 299.466 177.619L299.886 177.349ZM299.004 173.723H299.504C299.504 172.159 299.947 170.832 300.819 169.719L300.425 169.411L300.032 169.103C299.01 170.407 298.504 171.955 298.504 173.723H299.004ZM300.425 169.411L300.823 169.714C301.705 168.558 302.947 167.661 304.574 167.036L304.394 166.569L304.215 166.102C302.444 166.783 301.04 167.781 300.028 169.108L300.425 169.411ZM304.394 166.569L304.579 167.034C306.238 166.376 308.215 166.04 310.519 166.04V165.54V165.04C308.12 165.04 306.013 165.39 304.21 166.104L304.394 166.569ZM310.519 165.54V166.04C312.246 166.04 313.991 166.232 315.754 166.617L315.86 166.128L315.967 165.639C314.137 165.24 312.321 165.04 310.519 165.04V165.54ZM315.86 166.128L315.754 166.617C317.513 167 318.943 167.539 320.059 168.221L320.319 167.794L320.58 167.367C319.344 166.612 317.801 166.04 315.967 165.639L315.86 166.128ZM320.319 167.794L319.873 167.569L317.521 172.224L317.967 172.449L318.414 172.674L320.766 168.019L320.319 167.794ZM317.967 172.449L318.226 172.021C316.942 171.244 315.631 170.714 314.295 170.44L314.194 170.93L314.094 171.42C315.306 171.668 316.51 172.152 317.709 172.877L317.967 172.449ZM314.194 170.93L314.31 170.443C313.032 170.141 311.752 169.989 310.47 169.989V170.489V170.989C311.672 170.989 312.875 171.131 314.079 171.417L314.194 170.93ZM310.47 170.489V169.989C308.576 169.989 307.077 170.268 306.046 170.895L306.305 171.322L306.565 171.749C307.363 171.265 308.641 170.989 310.47 170.989V170.489ZM306.305 171.322L306.039 170.899C305.05 171.522 304.482 172.367 304.482 173.429H304.982H305.482C305.482 172.792 305.797 172.233 306.572 171.745L306.305 171.322ZM304.982 173.429H304.482C304.482 174.359 304.843 175.113 305.587 175.609L305.864 175.193L306.142 174.777C305.71 174.489 305.482 174.067 305.482 173.429H304.982ZM305.864 175.193L305.587 175.609C306.239 176.043 307.066 176.372 308.05 176.61L308.167 176.124L308.285 175.638C307.374 175.418 306.666 175.127 306.142 174.777L305.864 175.193ZM308.167 176.124L308.05 176.61C309.015 176.843 310.076 177.042 311.233 177.207L311.303 176.712L311.374 176.217C310.244 176.056 309.214 175.862 308.285 175.638L308.167 176.124ZM311.303 176.712L311.248 177.209C312.401 177.337 313.537 177.545 314.658 177.833L314.782 177.349L314.907 176.865C313.741 176.565 312.558 176.348 311.359 176.215L311.303 176.712ZM314.782 177.349L314.658 177.833C315.764 178.118 316.77 178.511 317.677 179.012L317.918 178.574L318.16 178.136C317.173 177.591 316.087 177.168 314.907 176.865L314.782 177.349ZM317.918 178.574L317.695 179.021C318.595 179.471 319.311 180.113 319.85 180.951L320.27 180.681L320.691 180.411C320.054 179.42 319.202 178.657 318.142 178.127L317.918 178.574ZM320.27 180.681L319.85 180.951C320.371 181.762 320.652 182.851 320.652 184.258H321.152H321.652C321.652 182.725 321.346 181.43 320.691 180.411L320.27 180.681ZM321.152 184.258H320.652C320.652 185.783 320.198 187.091 319.294 188.206L319.682 188.521L320.071 188.836C321.127 187.534 321.652 186 321.652 184.258H321.152ZM319.682 188.521L319.289 188.213C318.408 189.336 317.134 190.236 315.434 190.897L315.615 191.363L315.797 191.829C317.625 191.118 319.062 190.123 320.076 188.829L319.682 188.521ZM315.615 191.363L315.442 190.894C313.747 191.522 311.702 191.843 309.294 191.843V192.343V192.843C311.787 192.843 313.956 192.511 315.789 191.832L315.615 191.363ZM329.612 190.138L329.266 190.499L329.27 190.503L329.612 190.138ZM327.26 160.052V159.552H326.76V160.052H327.26ZM333.385 160.052H333.885V159.552H333.385V160.052ZM334.316 186.267L333.945 186.603L333.954 186.612L334.316 186.267ZM340.441 186.218L340.906 186.035L340.661 185.41L340.132 185.825L340.441 186.218ZM342.156 190.579L342.473 190.966L342.755 190.735L342.621 190.396L342.156 190.579ZM339.51 191.902L339.646 192.383L339.51 191.902ZM322.948 170.93H322.448V171.43H322.948V170.93ZM322.948 166.03V165.53H322.448V166.03H322.948ZM340.392 166.03H340.892V165.53H340.392V166.03ZM340.392 170.93V171.43H340.892V170.93H340.392ZM336.276 192.343V191.843C333.485 191.843 331.402 191.13 329.954 189.773L329.612 190.138L329.27 190.503C330.959 192.086 333.318 192.843 336.276 192.843V192.343ZM329.612 190.138L329.958 189.777C328.518 188.397 327.76 186.342 327.76 183.523H327.26H326.76C326.76 186.519 327.57 188.873 329.266 190.499L329.612 190.138ZM327.26 183.523H327.76V160.052H327.26H326.76V183.523H327.26ZM327.26 160.052V160.552H333.385V160.052V159.552H327.26V160.052ZM333.385 160.052H332.885V183.376H333.385H333.885V160.052H333.385ZM333.385 183.376H332.885C332.885 184.698 333.217 185.797 333.945 186.602L334.316 186.267L334.687 185.932C334.174 185.365 333.885 184.536 333.885 183.376H333.385ZM334.316 186.267L333.954 186.612C334.721 187.417 335.761 187.796 337.011 187.796V187.296V186.796C335.974 186.796 335.218 186.489 334.678 185.922L334.316 186.267ZM337.011 187.296V187.796C338.474 187.796 339.732 187.411 340.75 186.611L340.441 186.218L340.132 185.825C339.321 186.462 338.292 186.796 337.011 186.796V187.296ZM340.441 186.218L339.976 186.401L341.691 190.762L342.156 190.579L342.621 190.396L340.906 186.035L340.441 186.218ZM342.156 190.579L341.84 190.192C341.182 190.73 340.365 191.142 339.375 191.421L339.51 191.902L339.646 192.383C340.746 192.074 341.693 191.604 342.473 190.966L342.156 190.579ZM339.51 191.902L339.375 191.421C338.375 191.702 337.342 191.843 336.276 191.843V192.343V192.843C337.432 192.843 338.555 192.69 339.646 192.383L339.51 191.902ZM322.948 170.93H323.448V166.03H322.948H322.448V170.93H322.948ZM322.948 166.03V166.53H340.392V166.03V165.53H322.948V166.03ZM340.392 166.03H339.892V170.93H340.392H340.892V166.03H340.392ZM340.392 170.93V170.43H322.948V170.93V171.43H340.392V170.93ZM347.195 192H346.695V192.5H347.195V192ZM347.195 165.834V165.334H346.695V165.834H347.195ZM353.32 165.834H353.82V165.334H353.32V165.834ZM353.32 192V192.5H353.82V192H353.32ZM347.44 160.444L347.086 160.798L347.094 160.805L347.44 160.444ZM347.44 155.25L347.785 155.612L347.785 155.611L347.44 155.25ZM353.075 155.201L352.73 155.563L352.738 155.571L352.747 155.578L353.075 155.201ZM353.124 160.444L353.477 160.798L353.485 160.79L353.124 160.444ZM347.195 192H347.695V165.834H347.195H346.695V192H347.195ZM347.195 165.834V166.334H353.32V165.834V165.334H347.195V165.834ZM353.32 165.834H352.82V192H353.32H353.82V165.834H353.32ZM353.32 192V191.5H347.195V192V192.5H353.32V192ZM350.282 161.522V161.022C349.253 161.022 348.434 160.703 347.785 160.083L347.44 160.444L347.094 160.805C347.948 161.622 349.024 162.022 350.282 162.022V161.522ZM347.44 160.444L347.793 160.09C347.168 159.465 346.862 158.727 346.862 157.847H346.362H345.862C345.862 158.993 346.274 159.986 347.086 160.798L347.44 160.444ZM346.362 157.847H346.862C346.862 156.93 347.171 156.198 347.785 155.612L347.44 155.25L347.095 154.888C346.271 155.674 345.862 156.673 345.862 157.847H346.362ZM347.44 155.25L347.785 155.611C348.434 154.991 349.253 154.672 350.282 154.672V154.172V153.672C349.024 153.672 347.948 154.072 347.094 154.889L347.44 155.25ZM350.282 154.172V154.672C351.317 154.672 352.118 154.979 352.73 155.563L353.075 155.201L353.42 154.839C352.594 154.051 351.533 153.672 350.282 153.672V154.172ZM353.075 155.201L352.747 155.578C353.387 156.135 353.702 156.829 353.702 157.7H354.202H354.702C354.702 156.545 354.266 155.574 353.403 154.824L353.075 155.201ZM354.202 157.7H353.702C353.702 158.654 353.389 159.444 352.762 160.098L353.124 160.444L353.485 160.79C354.296 159.941 354.702 158.902 354.702 157.7H354.202ZM353.124 160.444L352.77 160.09C352.16 160.701 351.348 161.022 350.282 161.022V161.522V162.022C351.568 162.022 352.65 161.625 353.477 160.798L353.124 160.444ZM364.544 190.138L364.198 190.499L364.202 190.503L364.544 190.138ZM362.192 160.052V159.552H361.692V160.052H362.192ZM368.317 160.052H368.817V159.552H368.317V160.052ZM369.248 186.267L368.877 186.603L368.886 186.612L369.248 186.267ZM375.373 186.218L375.838 186.035L375.592 185.41L375.064 185.825L375.373 186.218ZM377.088 190.579L377.404 190.966L377.687 190.735L377.553 190.396L377.088 190.579ZM374.442 191.902L374.577 192.383L374.442 191.902ZM357.88 170.93H357.38V171.43H357.88V170.93ZM357.88 166.03V165.53H357.38V166.03H357.88ZM375.324 166.03H375.824V165.53H375.324V166.03ZM375.324 170.93V171.43H375.824V170.93H375.324ZM371.208 192.343V191.843C368.416 191.843 366.333 191.13 364.886 189.773L364.544 190.138L364.202 190.503C365.89 192.086 368.25 192.843 371.208 192.843V192.343ZM364.544 190.138L364.89 189.777C363.45 188.397 362.692 186.342 362.692 183.523H362.192H361.692C361.692 186.519 362.502 188.873 364.198 190.499L364.544 190.138ZM362.192 183.523H362.692V160.052H362.192H361.692V183.523H362.192ZM362.192 160.052V160.552H368.317V160.052V159.552H362.192V160.052ZM368.317 160.052H367.817V183.376H368.317H368.817V160.052H368.317ZM368.317 183.376H367.817C367.817 184.698 368.148 185.797 368.877 186.602L369.248 186.267L369.619 185.932C369.106 185.365 368.817 184.536 368.817 183.376H368.317ZM369.248 186.267L368.886 186.612C369.653 187.417 370.693 187.796 371.943 187.796V187.296V186.796C370.906 186.796 370.15 186.489 369.61 185.922L369.248 186.267ZM371.943 187.296V187.796C373.406 187.796 374.664 187.411 375.682 186.611L375.373 186.218L375.064 185.825C374.252 186.462 373.224 186.796 371.943 186.796V187.296ZM375.373 186.218L374.908 186.401L376.623 190.762L377.088 190.579L377.553 190.396L375.838 186.035L375.373 186.218ZM377.088 190.579L376.771 190.192C376.114 190.73 375.297 191.142 374.306 191.421L374.442 191.902L374.577 192.383C375.678 192.074 376.624 191.604 377.404 190.966L377.088 190.579ZM374.442 191.902L374.306 191.421C373.306 191.702 372.274 191.843 371.208 191.843V192.343V192.843C372.363 192.843 373.487 192.69 374.577 192.383L374.442 191.902ZM357.88 170.93H358.38V166.03H357.88H357.38V170.93H357.88ZM357.88 166.03V166.53H375.324V166.03V165.53H357.88V166.03ZM375.324 166.03H374.824V170.93H375.324H375.824V166.03H375.324ZM375.324 170.93V170.43H357.88V170.93V171.43H375.324V170.93ZM387.32 191.118L387.097 191.565L387.104 191.569L387.32 191.118ZM383.351 187.296L382.913 187.536L382.915 187.54L383.351 187.296ZM381.93 165.834V165.334H381.43V165.834H381.93ZM388.055 165.834H388.555V165.334H388.055V165.834ZM389.623 185.238L389.25 185.57L389.255 185.576L389.26 185.581L389.623 185.238ZM397.904 186.071L397.665 185.632L397.659 185.635L397.904 186.071ZM400.403 183.425L399.961 183.192L399.956 183.201L400.403 183.425ZM401.334 165.834V165.334H400.834V165.834H401.334ZM407.459 165.834H407.959V165.334H407.459V165.834ZM407.459 192V192.5H407.959V192H407.459ZM401.628 192H401.128V192.5H401.628V192ZM401.628 184.944L402.08 184.729L401.128 184.944H401.628ZM402.657 187.1L403.101 187.33L403.216 187.109L403.109 186.885L402.657 187.1ZM398.786 191.02L399.017 191.464L399.023 191.46L398.786 191.02ZM393.2 192.343V191.843C391.041 191.843 389.157 191.446 387.537 190.667L387.32 191.118L387.104 191.569C388.881 192.423 390.917 192.843 393.2 192.843V192.343ZM387.32 191.118L387.544 190.671C385.938 189.868 384.688 188.666 383.788 187.052L383.351 187.296L382.915 187.54C383.91 189.324 385.306 190.67 387.097 191.565L387.32 191.118ZM383.351 187.296L383.79 187.056C382.894 185.418 382.43 183.335 382.43 180.779H381.93H381.43C381.43 183.45 381.914 185.711 382.913 187.536L383.351 187.296ZM381.93 180.779H382.43V165.834H381.93H381.43V180.779H381.93ZM381.93 165.834V166.334H388.055V165.834V165.334H381.93V165.834ZM388.055 165.834H387.555V179.946H388.055H388.555V165.834H388.055ZM388.055 179.946H387.555C387.555 182.362 388.091 184.267 389.25 185.57L389.623 185.238L389.997 184.906C389.065 183.857 388.555 182.234 388.555 179.946H388.055ZM389.623 185.238L389.26 185.581C390.454 186.848 392.119 187.453 394.18 187.453V186.953V186.453C392.322 186.453 390.948 185.914 389.987 184.895L389.623 185.238ZM394.18 186.953V187.453C395.687 187.453 397.016 187.145 398.15 186.507L397.904 186.071L397.659 185.635C396.702 186.173 395.549 186.453 394.18 186.453V186.953ZM397.904 186.071L398.144 186.51C399.318 185.87 400.22 184.909 400.851 183.649L400.403 183.425L399.956 183.201C399.41 184.293 398.647 185.096 397.665 185.632L397.904 186.071ZM400.403 183.425L400.846 183.658C401.514 182.392 401.834 180.853 401.834 179.064H401.334H400.834C400.834 180.738 400.534 182.106 399.961 183.192L400.403 183.425ZM401.334 179.064H401.834V165.834H401.334H400.834V179.064H401.334ZM401.334 165.834V166.334H407.459V165.834V165.334H401.334V165.834ZM407.459 165.834H406.959V192H407.459H407.959V165.834H407.459ZM407.459 192V191.5H401.628V192V192.5H407.459V192ZM401.628 192H402.128V184.944H401.628H401.128V192H401.628ZM401.628 184.944L401.177 185.159L402.206 187.315L402.657 187.1L403.109 186.885L402.08 184.729L401.628 184.944ZM402.657 187.1L402.214 186.87C401.378 188.478 400.16 189.712 398.549 190.58L398.786 191.02L399.023 191.46C400.81 190.498 402.172 189.119 403.101 187.33L402.657 187.1ZM398.786 191.02L398.556 190.576C396.933 191.419 395.15 191.843 393.2 191.843V192.343V192.843C395.301 192.843 397.243 192.385 399.017 191.464L398.786 191.02ZM418.664 190.138L418.318 190.499L418.322 190.503L418.664 190.138ZM416.312 160.052V159.552H415.812V160.052H416.312ZM422.437 160.052H422.937V159.552H422.437V160.052ZM423.368 186.267L422.997 186.603L423.006 186.612L423.368 186.267ZM429.493 186.218L429.958 186.035L429.712 185.41L429.184 185.825L429.493 186.218ZM431.208 190.579L431.525 190.966L431.807 190.735L431.673 190.396L431.208 190.579ZM428.562 191.902L428.697 192.383L428.562 191.902ZM412 170.93H411.5V171.43H412V170.93ZM412 166.03V165.53H411.5V166.03H412ZM429.444 166.03H429.944V165.53H429.444V166.03ZM429.444 170.93V171.43H429.944V170.93H429.444ZM425.328 192.343V191.843C422.536 191.843 420.454 191.13 419.006 189.773L418.664 190.138L418.322 190.503C420.01 192.086 422.37 192.843 425.328 192.843V192.343ZM418.664 190.138L419.01 189.777C417.57 188.397 416.812 186.342 416.812 183.523H416.312H415.812C415.812 186.519 416.622 188.873 418.318 190.499L418.664 190.138ZM416.312 183.523H416.812V160.052H416.312H415.812V183.523H416.312ZM416.312 160.052V160.552H422.437V160.052V159.552H416.312V160.052ZM422.437 160.052H421.937V183.376H422.437H422.937V160.052H422.437ZM422.437 183.376H421.937C421.937 184.698 422.268 185.797 422.997 186.602L423.368 186.267L423.739 185.932C423.226 185.365 422.937 184.536 422.937 183.376H422.437ZM423.368 186.267L423.006 186.612C423.773 187.417 424.813 187.796 426.063 187.796V187.296V186.796C425.026 186.796 424.27 186.489 423.73 185.922L423.368 186.267ZM426.063 187.296V187.796C427.526 187.796 428.784 187.411 429.802 186.611L429.493 186.218L429.184 185.825C428.373 186.462 427.344 186.796 426.063 186.796V187.296ZM429.493 186.218L429.028 186.401L430.743 190.762L431.208 190.579L431.673 190.396L429.958 186.035L429.493 186.218ZM431.208 190.579L430.891 190.192C430.234 190.73 429.417 191.142 428.427 191.421L428.562 191.902L428.697 192.383C429.798 192.074 430.744 191.604 431.525 190.966L431.208 190.579ZM428.562 191.902L428.427 191.421C427.426 191.702 426.394 191.843 425.328 191.843V192.343V192.843C426.483 192.843 427.607 192.69 428.697 192.383L428.562 191.902ZM412 170.93H412.5V166.03H412H411.5V170.93H412ZM412 166.03V166.53H429.444V166.03V165.53H412V166.03ZM429.444 166.03H428.944V170.93H429.444H429.944V166.03H429.444ZM429.444 170.93V170.43H412V170.93V171.43H429.444V170.93ZM440.04 190.628L439.801 191.067L439.809 191.071L440.04 190.628ZM434.993 185.826L434.561 186.077L434.564 186.082L434.993 185.826ZM434.944 172.008L434.512 171.757L434.51 171.759L434.944 172.008ZM439.746 167.255L439.503 166.818L439.5 166.82L439.746 167.255ZM453.564 167.206L453.808 166.769V166.769L453.564 167.206ZM459.934 179.946L459.437 179.896L459.434 179.921V179.946H459.934ZM459.885 180.877V181.377H460.333L460.382 180.932L459.885 180.877ZM438.08 180.877H437.58V181.377H438.08V180.877ZM438.08 176.81V176.31H437.58V176.81H438.08ZM456.651 176.81L456.886 177.252L456.651 176.31V176.81ZM454.25 178.084L453.75 178.073L453.732 178.925L454.485 178.526L454.25 178.084ZM453.319 174.115L452.885 174.363V174.363L453.319 174.115ZM450.624 171.42L450.371 171.851L450.376 171.854L450.624 171.42ZM442.784 171.42L442.536 170.986L442.531 170.989L442.784 171.42ZM440.138 174.164L439.701 173.921L439.699 173.925L440.138 174.164ZM443.323 186.169L443.1 186.616V186.616L443.323 186.169ZM451.8 186.463L451.981 186.929V186.929L451.8 186.463ZM454.936 184.307L455.313 183.979L454.949 183.56L454.571 183.966L454.936 184.307ZM458.219 188.08L458.599 188.405L458.88 188.078L458.596 187.752L458.219 188.08ZM453.76 191.265L453.949 191.728L453.953 191.726L453.76 191.265ZM447.684 192.343V191.843C444.843 191.843 442.377 191.285 440.272 190.185L440.04 190.628L439.809 191.071C442.08 192.258 444.711 192.843 447.684 192.843V192.343ZM440.04 190.628L440.28 190.189C438.199 189.054 436.583 187.515 435.423 185.57L434.993 185.826L434.564 186.082C435.82 188.188 437.57 189.85 439.801 191.067L440.04 190.628ZM434.993 185.826L435.426 185.575C434.298 183.633 433.729 181.419 433.729 178.917H433.229H432.729C432.729 181.577 433.336 183.968 434.561 186.077L434.993 185.826ZM433.229 178.917H433.729C433.729 176.379 434.284 174.164 435.378 172.257L434.944 172.008L434.51 171.759C433.318 173.837 432.729 176.229 432.729 178.917H433.229ZM434.944 172.008L435.377 172.259C436.508 170.31 438.045 168.79 439.992 167.69L439.746 167.255L439.5 166.82C437.397 168.007 435.732 169.655 434.512 171.757L434.944 172.008ZM439.746 167.255L439.989 167.692C441.965 166.594 444.215 166.04 446.753 166.04V165.54V165.04C444.064 165.04 441.644 165.629 439.503 166.818L439.746 167.255ZM446.753 165.54V166.04C449.226 166.04 451.411 166.578 453.321 167.643L453.564 167.206L453.808 166.769C451.732 165.612 449.376 165.04 446.753 165.04V165.54ZM453.564 167.206L453.321 167.643C455.231 168.708 456.734 170.209 457.833 172.156L458.268 171.91L458.704 171.664C457.516 169.56 455.882 167.926 453.808 166.769L453.564 167.206ZM458.268 171.91L457.833 172.156C458.927 174.094 459.483 176.391 459.483 179.064H459.983H460.483C460.483 176.249 459.896 173.777 458.704 171.664L458.268 171.91ZM459.983 179.064H459.483C459.483 179.305 459.468 179.582 459.437 179.896L459.934 179.946L460.432 179.996C460.466 179.657 460.483 179.346 460.483 179.064H459.983ZM459.934 179.946H459.434C459.434 180.256 459.419 180.548 459.388 180.822L459.885 180.877L460.382 180.932C460.417 180.618 460.434 180.289 460.434 179.946H459.934ZM459.885 180.877V180.377H438.08V180.877V181.377H459.885V180.877ZM438.08 180.877H438.58V176.81H438.08H437.58V180.877H438.08ZM438.08 176.81V177.31H456.651V176.81V176.31H438.08V176.81ZM456.651 176.81L456.417 176.368L454.016 177.642L454.25 178.084L454.485 178.526L456.886 177.252L456.651 176.81ZM454.25 178.084L454.75 178.095C454.784 176.515 454.458 175.1 453.753 173.867L453.319 174.115L452.885 174.363C453.487 175.417 453.781 176.648 453.75 178.073L454.25 178.084ZM453.319 174.115L453.753 173.867C453.056 172.646 452.093 171.684 450.872 170.986L450.624 171.42L450.376 171.854C451.442 172.463 452.276 173.297 452.885 174.363L453.319 174.115ZM450.624 171.42L450.878 170.989C449.68 170.284 448.3 169.94 446.753 169.94V170.44V170.94C448.147 170.94 449.347 171.249 450.371 171.851L450.624 171.42ZM446.753 170.44V169.94C445.176 169.94 443.765 170.284 442.536 170.986L442.784 171.42L443.032 171.854C444.09 171.25 445.325 170.94 446.753 170.94V170.44ZM442.784 171.42L442.531 170.989C441.34 171.69 440.396 172.671 439.701 173.921L440.138 174.164L440.575 174.407C441.187 173.305 442.007 172.457 443.038 171.851L442.784 171.42ZM440.138 174.164L439.699 173.925C439.031 175.156 438.707 176.597 438.707 178.231H439.207H439.707C439.707 176.729 440.004 175.459 440.578 174.403L440.138 174.164ZM439.207 178.231H438.707V179.211H439.207H439.707V178.231H439.207ZM439.207 179.211H438.707C438.707 180.858 439.086 182.337 439.855 183.632L440.285 183.376L440.715 183.12C440.047 181.998 439.707 180.7 439.707 179.211H439.207ZM440.285 183.376L439.855 183.632C440.625 184.926 441.711 185.922 443.1 186.616L443.323 186.169L443.547 185.722C442.322 185.11 441.383 184.243 440.715 183.12L440.285 183.376ZM443.323 186.169L443.1 186.616C444.486 187.309 446.068 187.649 447.831 187.649V187.149V186.649C446.198 186.649 444.774 186.335 443.547 185.722L443.323 186.169ZM447.831 187.149V187.649C449.353 187.649 450.739 187.412 451.981 186.929L451.8 186.463L451.619 185.997C450.509 186.428 449.249 186.649 447.831 186.649V187.149ZM451.8 186.463L451.981 186.929C453.232 186.443 454.339 185.68 455.302 184.648L454.936 184.307L454.571 183.966C453.704 184.894 452.721 185.569 451.619 185.997L451.8 186.463ZM454.936 184.307L454.559 184.635L457.842 188.408L458.219 188.08L458.596 187.752L455.313 183.979L454.936 184.307ZM458.219 188.08L457.84 187.755C456.718 189.063 455.298 190.08 453.567 190.804L453.76 191.265L453.953 191.726C455.816 190.947 457.368 189.841 458.599 188.405L458.219 188.08ZM453.76 191.265L453.572 190.802C451.878 191.492 449.919 191.843 447.684 191.843V192.343V192.843C450.023 192.843 452.114 192.475 453.949 191.728L453.76 191.265ZM484.015 190.628L483.769 191.064L483.775 191.067L484.015 190.628ZM479.066 185.826L478.636 186.082V186.082L479.066 185.826ZM479.066 172.008L479.493 172.267L479.495 172.264L479.066 172.008ZM484.015 167.255L484.255 167.694V167.694L484.015 167.255ZM498.372 167.255L498.132 167.694L498.135 167.695L498.372 167.255ZM503.321 171.959L502.89 172.213L502.893 172.218L503.321 171.959ZM503.321 185.826L502.891 185.57L502.888 185.575L503.321 185.826ZM498.372 190.628L498.612 191.067L498.614 191.065L498.372 190.628ZM495.187 186.12L494.944 185.683V185.683L495.187 186.12ZM497.931 183.278L497.493 183.036L497.488 183.045L497.931 183.278ZM497.931 174.556L497.488 174.789L497.492 174.796L497.496 174.803L497.931 174.556ZM495.187 171.714L495.429 171.277V171.277L495.187 171.714ZM487.2 171.714L486.957 171.277L486.952 171.28L487.2 171.714ZM484.456 174.556L484.891 174.803L484.893 174.798L484.456 174.556ZM484.456 183.278L484.018 183.52V183.52L484.456 183.278ZM487.2 186.12L486.952 186.554L486.957 186.557L487.2 186.12ZM491.169 192.343V191.843C488.563 191.843 486.263 191.288 484.255 190.189L484.015 190.628L483.775 191.067C485.948 192.255 488.417 192.843 491.169 192.843V192.343ZM484.015 190.628L484.26 190.192C482.244 189.058 480.658 187.519 479.495 185.57L479.066 185.826L478.636 186.082C479.89 188.184 481.604 189.846 483.77 191.064L484.015 190.628ZM479.066 185.826L479.495 185.57C478.337 183.629 477.753 181.416 477.753 178.917H477.253H476.753C476.753 181.579 477.377 183.972 478.636 186.082L479.066 185.826ZM477.253 178.917H477.753C477.753 176.384 478.337 174.173 479.493 172.267L479.066 172.008L478.638 171.749C477.376 173.829 476.753 176.224 476.753 178.917H477.253ZM479.066 172.008L479.495 172.264C480.657 170.316 482.241 168.795 484.255 167.694L484.015 167.255L483.775 166.816C481.607 168.002 479.891 169.649 478.636 171.752L479.066 172.008ZM484.015 167.255L484.255 167.694C486.263 166.595 488.563 166.04 491.169 166.04V165.54V165.04C488.417 165.04 485.948 165.628 483.775 166.816L484.015 167.255ZM491.169 165.54V166.04C493.808 166.04 496.124 166.596 498.132 167.694L498.372 167.255L498.612 166.816C496.438 165.627 493.952 165.04 491.169 165.04V165.54ZM498.372 167.255L498.135 167.695C500.181 168.797 501.762 170.302 502.89 172.213L503.321 171.959L503.751 171.705C502.527 169.63 500.809 167.999 498.609 166.815L498.372 167.255ZM503.321 171.959L502.893 172.218C504.048 174.123 504.634 176.35 504.634 178.917H505.134H505.634C505.634 176.192 505.01 173.781 503.748 171.7L503.321 171.959ZM505.134 178.917H504.634C504.634 181.416 504.049 183.629 502.891 185.57L503.321 185.826L503.75 186.082C505.009 183.972 505.634 181.579 505.634 178.917H505.134ZM503.321 185.826L502.888 185.575C501.759 187.519 500.177 189.057 498.129 190.191L498.372 190.628L498.614 191.065C500.813 189.847 502.53 188.183 503.753 186.077L503.321 185.826ZM498.372 190.628L498.132 190.189C496.124 191.287 493.808 191.843 491.169 191.843V192.343V192.843C493.952 192.843 496.438 192.256 498.612 191.067L498.372 190.628ZM491.169 187.1V187.6C492.746 187.6 494.171 187.256 495.429 186.557L495.187 186.12L494.944 185.683C493.85 186.29 492.596 186.6 491.169 186.6V187.1ZM495.187 186.12L495.429 186.557C496.694 185.854 497.677 184.834 498.373 183.511L497.931 183.278L497.488 183.045C496.878 184.204 496.031 185.079 494.944 185.683L495.187 186.12ZM497.931 183.278L498.368 183.52C499.102 182.192 499.46 180.653 499.46 178.917H498.96H498.46C498.46 180.513 498.131 181.881 497.493 183.036L497.931 183.278ZM498.96 178.917H499.46C499.46 177.151 499.103 175.608 498.365 174.309L497.931 174.556L497.496 174.803C498.131 175.921 498.46 177.286 498.46 178.917H498.96ZM497.931 174.556L498.373 174.323C497.677 173 496.694 171.98 495.429 171.277L495.187 171.714L494.944 172.151C496.031 172.755 496.878 173.63 497.488 174.789L497.931 174.556ZM495.187 171.714L495.429 171.277C494.172 170.579 492.765 170.234 491.218 170.234V170.734V171.234C492.611 171.234 493.849 171.543 494.944 172.151L495.187 171.714ZM491.218 170.734V170.234C489.64 170.234 488.215 170.578 486.957 171.277L487.2 171.714L487.442 172.151C488.536 171.544 489.79 171.234 491.218 171.234V170.734ZM487.2 171.714L486.952 171.28C485.722 171.982 484.745 172.999 484.018 174.314L484.456 174.556L484.893 174.798C485.538 173.63 486.39 172.752 487.448 172.148L487.2 171.714ZM484.456 174.556L484.021 174.309C483.284 175.608 482.927 177.151 482.927 178.917H483.427H483.927C483.927 177.286 484.256 175.921 484.89 174.803L484.456 174.556ZM483.427 178.917H482.927C482.927 180.653 483.284 182.192 484.018 183.52L484.456 183.278L484.893 183.036C484.255 181.881 483.927 180.513 483.927 178.917H483.427ZM484.456 183.278L484.018 183.52C484.745 184.835 485.722 185.852 486.952 186.554L487.2 186.12L487.448 185.686C486.39 185.082 485.538 184.204 484.893 183.036L484.456 183.278ZM487.2 186.12L486.957 186.557C488.214 187.255 489.622 187.6 491.169 187.6V187.1V186.6C489.776 186.6 488.537 186.291 487.442 185.683L487.2 186.12ZM511.824 192H511.324V192.5H511.824V192ZM514.225 157.798L513.868 157.448L513.868 157.448L514.225 157.798ZM524.221 155.642L524.103 156.128L524.107 156.129L524.221 155.642ZM526.671 156.72L527.141 156.89L527.267 156.542L526.971 156.32L526.671 156.72ZM525.005 161.326L524.696 161.719L525.24 162.146L525.475 161.496L525.005 161.326ZM523.437 160.542L523.279 161.016L523.291 161.02L523.303 161.024L523.437 160.542ZM518.733 161.326L519.095 161.671L519.103 161.662L518.733 161.326ZM517.753 167.402H517.253V167.42L517.254 167.438L517.753 167.402ZM517.949 170.146H518.449V170.128L518.447 170.11L517.949 170.146ZM517.949 192V192.5H518.449V192H517.949ZM507.512 170.93H507.012V171.43H507.512V170.93ZM507.512 166.03V165.53H507.012V166.03H507.512ZM524.956 166.03H525.456V165.53H524.956V166.03ZM524.956 170.93V171.43H525.456V170.93H524.956ZM511.824 192H512.324V164.364H511.824H511.324V192H511.824ZM511.824 164.364H512.324C512.324 161.723 513.091 159.67 514.582 158.148L514.225 157.798L513.868 157.448C512.157 159.193 511.324 161.517 511.324 164.364H511.824ZM514.225 157.798L514.582 158.148C516.096 156.604 518.271 155.799 521.183 155.799V155.299V154.799C518.084 154.799 515.62 155.66 513.868 157.448L514.225 157.798ZM521.183 155.299V155.799C522.225 155.799 523.198 155.91 524.103 156.128L524.221 155.642L524.338 155.156C523.348 154.917 522.296 154.799 521.183 154.799V155.299ZM524.221 155.642L524.107 156.129C525.035 156.345 525.784 156.68 526.371 157.12L526.671 156.72L526.971 156.32C526.251 155.78 525.366 155.396 524.334 155.155L524.221 155.642ZM526.671 156.72L526.2 156.55L524.534 161.156L525.005 161.326L525.475 161.496L527.141 156.89L526.671 156.72ZM525.005 161.326L525.314 160.933C524.802 160.531 524.219 160.24 523.57 160.06L523.437 160.542L523.303 161.024C523.83 161.17 524.293 161.403 524.696 161.719L525.005 161.326ZM523.437 160.542L523.595 160.068C522.956 159.855 522.298 159.748 521.624 159.748V160.248V160.748C522.191 160.748 522.742 160.837 523.279 161.016L523.437 160.542ZM521.624 160.248V159.748C520.255 159.748 519.138 160.137 518.363 160.99L518.733 161.326L519.103 161.662C519.634 161.078 520.444 160.748 521.624 160.748V160.248ZM518.733 161.326L518.371 160.981C517.594 161.797 517.253 162.99 517.253 164.462H517.753H518.253C518.253 163.125 518.565 162.227 519.095 161.671L518.733 161.326ZM517.753 164.462H517.253V167.402H517.753H518.253V164.462H517.753ZM517.753 167.402L517.254 167.438L517.45 170.182L517.949 170.146L518.447 170.11L518.251 167.366L517.753 167.402ZM517.949 170.146H517.449V192H517.949H518.449V170.146H517.949ZM517.949 192V191.5H511.824V192V192.5H517.949V192ZM507.512 170.93H508.012V166.03H507.512H507.012V170.93H507.512ZM507.512 166.03V166.53H524.956V166.03V165.53H507.512V166.03ZM524.956 166.03H524.456V170.93H524.956H525.456V166.03H524.956ZM524.956 170.93V170.43H507.512V170.93V171.43H524.956V170.93ZM256.648 304H256.148V304.5H256.648V304ZM256.648 239.6V239.1H256.148V239.6H256.648ZM303.2 243.648L302.972 244.093V244.093L303.2 243.648ZM315.528 254.872L315.102 255.134V255.134L315.528 254.872ZM315.528 288.728L315.954 288.99L315.955 288.988L315.528 288.728ZM268.608 293.88H268.108V294.38H268.608V293.88ZM296.76 291.12L296.53 290.676L296.527 290.678L296.76 291.12ZM304.948 283.392L304.518 283.137L304.514 283.143L304.948 283.392ZM304.948 260.208L304.514 260.457L304.52 260.466L304.948 260.208ZM296.76 252.48L296.527 252.922L296.53 252.924L296.76 252.48ZM268.608 249.72V249.22H268.108V249.72H268.608ZM256.648 304H257.148V239.6H256.648H256.148V304H256.648ZM256.648 239.6V240.1H284.8V239.6V239.1H256.648V239.6ZM284.8 239.6V240.1C291.727 240.1 297.78 241.436 302.972 244.093L303.2 243.648L303.428 243.203C298.071 240.462 291.857 239.1 284.8 239.1V239.6ZM303.2 243.648L302.972 244.093C308.17 246.752 312.209 250.432 315.102 255.134L315.528 254.872L315.954 254.61C312.959 249.744 308.779 245.941 303.428 243.203L303.2 243.648ZM315.528 254.872L315.102 255.134C317.99 259.827 319.444 265.376 319.444 271.8H319.944H320.444C320.444 265.221 318.954 259.484 315.954 254.61L315.528 254.872ZM319.944 271.8H319.444C319.444 278.161 317.991 283.711 315.101 288.468L315.528 288.728L315.955 288.988C318.953 284.054 320.444 278.319 320.444 271.8H319.944ZM315.528 288.728L315.102 288.466C312.209 293.168 308.17 296.848 302.972 299.507L303.2 299.952L303.428 300.397C308.779 297.659 312.959 293.856 315.954 288.99L315.528 288.728ZM303.2 299.952L302.972 299.507C297.78 302.164 291.727 303.5 284.8 303.5V304V304.5C291.857 304.5 298.071 303.138 303.428 300.397L303.2 299.952ZM284.8 304V303.5H256.648V304V304.5H284.8V304ZM268.608 293.88V294.38H284.248V293.88V293.38H268.608V293.88ZM284.248 293.88V294.38C289.156 294.38 293.411 293.448 296.993 291.562L296.76 291.12L296.527 290.678C293.117 292.472 289.03 293.38 284.248 293.38V293.88ZM296.76 291.12L296.99 291.564C300.628 289.682 303.43 287.04 305.382 283.641L304.948 283.392L304.514 283.143C302.663 286.368 300.007 288.878 296.53 290.676L296.76 291.12ZM304.948 283.392L305.378 283.647C307.393 280.247 308.392 276.292 308.392 271.8H307.892H307.392C307.392 276.14 306.428 279.913 304.518 283.137L304.948 283.392ZM307.892 271.8H308.392C308.392 267.248 307.394 263.291 305.376 259.95L304.948 260.208L304.52 260.466C306.428 263.626 307.392 267.397 307.392 271.8H307.892ZM304.948 260.208L305.382 259.959C303.43 256.56 300.628 253.918 296.99 252.036L296.76 252.48L296.53 252.924C300.007 254.722 302.663 257.232 304.514 260.457L304.948 260.208ZM296.76 252.48L296.993 252.038C293.411 250.152 289.156 249.22 284.248 249.22V249.72V250.22C289.03 250.22 293.117 251.128 296.527 252.922L296.76 252.48ZM284.248 249.72V249.22H268.608V249.72V250.22H284.248V249.72ZM268.608 249.72H268.108V293.88H268.608H269.108V249.72H268.608ZM331.552 304H331.052V304.5H331.552V304ZM331.552 254.872V254.372H331.052V254.872H331.552ZM343.052 254.872H343.552V254.372H343.052V254.872ZM343.052 304V304.5H343.552V304H343.052ZM332.012 244.752L331.658 245.106L331.666 245.113L332.012 244.752ZM332.012 235L332.357 235.362L332.357 235.361L332.012 235ZM342.592 234.908L342.247 235.27L342.255 235.278L342.264 235.285L342.592 234.908ZM342.684 244.752L343.037 245.106L343.045 245.098L342.684 244.752ZM331.552 304H332.052V254.872H331.552H331.052V304H331.552ZM331.552 254.872V255.372H343.052V254.872V254.372H331.552V254.872ZM343.052 254.872H342.552V304H343.052H343.552V254.872H343.052ZM343.052 304V303.5H331.552V304V304.5H343.052V304ZM337.348 246.776V246.276C335.316 246.276 333.665 245.642 332.357 244.391L332.012 244.752L331.666 245.113C333.18 246.561 335.086 247.276 337.348 247.276V246.776ZM332.012 244.752L332.365 244.398C331.109 243.142 330.488 241.644 330.488 239.876H329.988H329.488C329.488 241.91 330.216 243.663 331.658 245.106L332.012 244.752ZM329.988 239.876H330.488C330.488 238.042 331.112 236.55 332.357 235.362L332.012 235L331.667 234.638C330.213 236.026 329.488 237.785 329.488 239.876H329.988ZM332.012 235L332.357 235.361C333.665 234.11 335.316 233.476 337.348 233.476V232.976V232.476C335.086 232.476 333.18 233.191 331.666 234.639L332.012 235ZM337.348 232.976V233.476C339.387 233.476 341.004 234.084 342.247 235.27L342.592 234.908L342.937 234.546C341.481 233.156 339.602 232.476 337.348 232.476V232.976ZM342.592 234.908L342.264 235.285C343.563 236.415 344.208 237.841 344.208 239.6H344.708H345.208C345.208 237.557 344.442 235.854 342.92 234.531L342.592 234.908ZM344.708 239.6H344.208C344.208 241.5 343.579 243.092 342.322 244.406L342.684 244.752L343.045 245.098C344.487 243.59 345.208 241.747 345.208 239.6H344.708ZM342.684 244.752L342.33 244.398C341.09 245.639 339.446 246.276 337.348 246.276V246.776V247.276C339.666 247.276 341.579 246.563 343.037 245.106L342.684 244.752ZM367.07 320.652L367.205 320.171L367.201 320.169L367.07 320.652ZM356.49 315.5L356.06 315.244L355.84 315.613L356.172 315.886L356.49 315.5ZM361.642 306.852L361.961 306.467L361.511 306.094L361.212 306.596L361.642 306.852ZM369.738 311.084L369.896 310.61L369.89 310.608L369.738 311.084ZM391.634 308.968L391.284 308.61L391.28 308.614L391.634 308.968ZM395.406 289.096L394.907 289.055L394.906 289.075V289.096H395.406ZM396.326 277.964L396.824 278.005L396.826 277.976L396.825 277.947L396.326 277.964ZM395.958 266.832H395.458V266.84L395.458 266.849L395.958 266.832ZM395.958 254.872V254.372H395.458V254.872H395.958ZM406.906 254.872H407.406V254.372H406.906V254.872ZM400.098 316.144L399.759 315.776L399.757 315.778L400.098 316.144ZM366.242 298.848L366.004 299.288L366.012 299.292L366.242 298.848ZM357.318 290.476L356.889 290.734L356.893 290.74L357.318 290.476ZM357.318 265.544L356.893 265.28L356.889 265.286L357.318 265.544ZM366.242 257.264L366.012 256.82L366.009 256.821L366.242 257.264ZM390.162 256.804L389.938 257.251V257.251L390.162 256.804ZM398.074 264.532L397.638 264.777L397.641 264.783L398.074 264.532ZM398.074 291.488L397.639 291.241L397.638 291.243L398.074 291.488ZM390.162 299.308L390.385 299.755L390.392 299.752L390.162 299.308ZM388.414 290.292L388.642 290.737L388.651 290.732L388.414 290.292ZM393.658 285.324L393.229 285.067L393.227 285.07L393.658 285.324ZM393.658 270.696L393.223 270.944L393.228 270.951L393.232 270.959L393.658 270.696ZM388.414 265.82L388.185 266.265L388.195 266.27L388.414 265.82ZM372.866 265.82L373.084 266.27L373.089 266.267L372.866 265.82ZM367.53 270.696L367.101 270.439L367.099 270.442L367.53 270.696ZM367.53 285.324L367.095 285.572L367.1 285.579L367.104 285.587L367.53 285.324ZM372.866 290.292L372.628 290.732L372.635 290.736L372.642 290.739L372.866 290.292ZM380.41 322.492V321.992C375.917 321.992 371.516 321.385 367.205 320.171L367.07 320.652L366.934 321.133C371.333 322.372 375.825 322.992 380.41 322.992V322.492ZM367.07 320.652L367.201 320.169C362.959 319.018 359.501 317.329 356.807 315.114L356.49 315.5L356.172 315.886C358.998 318.21 362.593 319.955 366.939 321.135L367.07 320.652ZM356.49 315.5L356.919 315.756L362.071 307.108L361.642 306.852L361.212 306.596L356.06 315.244L356.49 315.5ZM361.642 306.852L361.323 307.237C363.528 309.064 366.287 310.502 369.585 311.56L369.738 311.084L369.89 310.608C366.687 309.58 364.048 308.197 361.961 306.467L361.642 306.852ZM369.738 311.084L369.579 311.558C372.941 312.679 376.337 313.24 379.766 313.24V312.74V312.24C376.448 312.24 373.158 311.697 369.896 310.61L369.738 311.084ZM379.766 312.74V313.24C385.228 313.24 389.34 311.969 391.987 309.322L391.634 308.968L391.28 308.614C388.898 310.996 385.098 312.24 379.766 312.24V312.74ZM391.634 308.968L391.983 309.326C394.628 306.745 395.906 302.882 395.906 297.836H395.406H394.906C394.906 302.726 393.668 306.284 391.284 308.61L391.634 308.968ZM395.406 297.836H395.906V289.096H395.406H394.906V297.836H395.406ZM395.406 289.096L395.904 289.137L396.824 278.005L396.326 277.964L395.827 277.923L394.907 289.055L395.406 289.096ZM396.326 277.964L396.825 277.947L396.457 266.815L395.958 266.832L395.458 266.849L395.826 277.981L396.326 277.964ZM395.958 266.832H396.458V254.872H395.958H395.458V266.832H395.958ZM395.958 254.872V255.372H406.906V254.872V254.372H395.958V254.872ZM406.906 254.872H406.406V296.548H406.906H407.406V254.872H406.906ZM406.906 296.548H406.406C406.406 305.364 404.156 311.735 399.759 315.776L400.098 316.144L400.436 316.512C405.116 312.211 407.406 305.518 407.406 296.548H406.906ZM400.098 316.144L399.757 315.778C395.341 319.896 388.919 321.992 380.41 321.992V322.492V322.992C389.074 322.992 395.777 320.856 400.439 316.51L400.098 316.144ZM378.938 301.792V301.292C374.349 301.292 370.196 300.327 366.471 298.404L366.242 298.848L366.012 299.292C369.892 301.295 374.204 302.292 378.938 302.292V301.792ZM366.242 298.848L366.479 298.408C362.813 296.425 359.904 293.694 357.742 290.212L357.318 290.476L356.893 290.74C359.147 294.372 362.187 297.223 366.004 299.288L366.242 298.848ZM357.318 290.476L357.746 290.218C355.653 286.749 354.598 282.671 354.598 277.964H354.098H353.598C353.598 282.825 354.689 287.088 356.889 290.734L357.318 290.476ZM354.098 277.964H354.598C354.598 273.32 355.652 269.271 357.746 265.802L357.318 265.544L356.889 265.286C354.69 268.931 353.598 273.163 353.598 277.964H354.098ZM357.318 265.544L357.742 265.808C359.903 262.327 362.811 259.628 366.474 257.707L366.242 257.264L366.009 256.821C362.19 258.825 359.148 261.646 356.893 265.28L357.318 265.544ZM366.242 257.264L366.471 257.708C370.196 255.785 374.349 254.82 378.938 254.82V254.32V253.82C374.204 253.82 369.892 254.817 366.012 256.82L366.242 257.264ZM378.938 254.32V254.82C383.04 254.82 386.704 255.634 389.938 257.251L390.162 256.804L390.385 256.357C386.995 254.662 383.176 253.82 378.938 253.82V254.32ZM390.162 256.804L389.938 257.251C393.153 258.859 395.72 261.36 397.638 264.777L398.074 264.532L398.51 264.287C396.502 260.712 393.794 258.061 390.385 256.357L390.162 256.804ZM398.074 264.532L397.641 264.783C399.608 268.18 400.61 272.564 400.61 277.964H401.11H401.61C401.61 272.447 400.587 267.876 398.506 264.281L398.074 264.532ZM401.11 277.964H400.61C400.61 283.364 399.608 287.78 397.639 291.241L398.074 291.488L398.508 291.735C400.587 288.082 401.61 283.481 401.61 277.964H401.11ZM398.074 291.488L397.638 291.243C395.719 294.661 393.15 297.195 389.931 298.864L390.162 299.308L390.392 299.752C393.797 297.986 396.503 295.307 398.51 291.733L398.074 291.488ZM390.162 299.308L389.938 298.861C386.704 300.478 383.04 301.292 378.938 301.292V301.792V302.292C383.176 302.292 386.995 301.45 390.385 299.755L390.162 299.308ZM380.686 292.04V292.54C383.637 292.54 386.293 291.943 388.642 290.737L388.414 290.292L388.185 289.847C385.995 290.972 383.499 291.54 380.686 291.54V292.04ZM388.414 290.292L388.651 290.732C390.995 289.465 392.813 287.747 394.089 285.578L393.658 285.324L393.227 285.07C392.049 287.072 390.37 288.666 388.176 289.852L388.414 290.292ZM393.658 285.324L394.086 285.581C395.426 283.349 396.09 280.805 396.09 277.964H395.59H395.09C395.09 280.643 394.465 283.006 393.229 285.067L393.658 285.324ZM395.59 277.964H396.09C396.09 275.123 395.426 272.607 394.083 270.433L393.658 270.696L393.232 270.959C394.465 272.955 395.09 275.285 395.09 277.964H395.59ZM393.658 270.696L394.092 270.448C392.814 268.212 390.99 266.517 388.632 265.37L388.414 265.82L388.195 266.27C390.376 267.331 392.048 268.887 393.223 270.944L393.658 270.696ZM388.414 265.82L388.642 265.375C386.293 264.169 383.637 263.572 380.686 263.572V264.072V264.572C383.499 264.572 385.995 265.14 388.185 266.265L388.414 265.82ZM380.686 264.072V263.572C377.734 263.572 375.049 264.169 372.642 265.373L372.866 265.82L373.089 266.267C375.343 265.14 377.872 264.572 380.686 264.572V264.072ZM372.866 265.82L372.647 265.37C370.291 266.516 368.439 268.208 367.101 270.439L367.53 270.696L367.958 270.953C369.196 268.89 370.901 267.332 373.084 266.27L372.866 265.82ZM367.53 270.696L367.099 270.442C365.821 272.615 365.19 275.128 365.19 277.964H365.69H366.19C366.19 275.28 366.785 272.948 367.961 270.95L367.53 270.696ZM365.69 277.964H365.19C365.19 280.801 365.821 283.341 367.095 285.572L367.53 285.324L367.964 285.076C366.785 283.013 366.19 280.647 366.19 277.964H365.69ZM367.53 285.324L367.104 285.587C368.441 287.75 370.286 289.466 372.628 290.732L372.866 290.292L373.103 289.852C370.907 288.665 369.195 287.068 367.955 285.061L367.53 285.324ZM372.866 290.292L372.642 290.739C375.049 291.943 377.734 292.54 380.686 292.54V292.04V291.54C377.872 291.54 375.343 290.972 373.089 289.845L372.866 290.292ZM422.024 304H421.524V304.5H422.024V304ZM422.024 254.872V254.372H421.524V254.872H422.024ZM433.524 254.872H434.024V254.372H433.524V254.872ZM433.524 304V304.5H434.024V304H433.524ZM422.484 244.752L422.131 245.106L422.139 245.113L422.484 244.752ZM422.484 235L422.83 235.362L422.83 235.361L422.484 235ZM433.064 234.908L432.719 235.27L432.728 235.278L432.736 235.285L433.064 234.908ZM433.156 244.752L433.51 245.106L433.518 245.098L433.156 244.752ZM422.024 304H422.524V254.872H422.024H421.524V304H422.024ZM422.024 254.872V255.372H433.524V254.872V254.372H422.024V254.872ZM433.524 254.872H433.024V304H433.524H434.024V254.872H433.524ZM433.524 304V303.5H422.024V304V304.5H433.524V304ZM427.82 246.776V246.276C425.789 246.276 424.138 245.642 422.83 244.391L422.484 244.752L422.139 245.113C423.652 246.561 425.559 247.276 427.82 247.276V246.776ZM422.484 244.752L422.838 244.398C421.582 243.142 420.96 241.644 420.96 239.876H420.46H419.96C419.96 241.91 420.688 243.663 422.131 245.106L422.484 244.752ZM420.46 239.876H420.96C420.96 238.042 421.585 236.55 422.83 235.362L422.484 235L422.139 234.638C420.685 236.026 419.96 237.785 419.96 239.876H420.46ZM422.484 235L422.83 235.361C424.138 234.11 425.789 233.476 427.82 233.476V232.976V232.476C425.559 232.476 423.652 233.191 422.139 234.639L422.484 235ZM427.82 232.976V233.476C429.859 233.476 431.477 234.084 432.719 235.27L433.064 234.908L433.41 234.546C431.953 233.156 430.075 232.476 427.82 232.476V232.976ZM433.064 234.908L432.736 235.285C434.036 236.415 434.68 237.841 434.68 239.6H435.18H435.68C435.68 237.557 434.915 235.854 433.393 234.531L433.064 234.908ZM435.18 239.6H434.68C434.68 241.5 434.052 243.092 432.795 244.406L433.156 244.752L433.518 245.098C434.96 243.59 435.68 241.747 435.68 239.6H435.18ZM433.156 244.752L432.803 244.398C431.562 245.639 429.918 246.276 427.82 246.276V246.776V247.276C430.139 247.276 432.052 246.563 433.51 245.106L433.156 244.752ZM454.598 300.504L454.252 300.865L454.256 300.869L454.598 300.504ZM450.182 244.016V243.516H449.682V244.016H450.182ZM461.682 244.016H462.182V243.516H461.682V244.016ZM463.43 293.236L463.059 293.572L463.068 293.581L463.43 293.236ZM474.93 293.144L475.396 292.961L475.15 292.336L474.621 292.751L474.93 293.144ZM478.15 301.332L478.467 301.719L478.749 301.488L478.616 301.149L478.15 301.332ZM473.182 303.816L473.318 304.297L473.182 303.816ZM442.086 264.44H441.586V264.94H442.086V264.44ZM442.086 255.24V254.74H441.586V255.24H442.086ZM474.838 255.24H475.338V254.74H474.838V255.24ZM474.838 264.44V264.94H475.338V264.44H474.838ZM467.11 304.644V304.144C461.796 304.144 457.764 302.786 454.94 300.139L454.598 300.504L454.256 300.869C457.321 303.742 461.63 305.144 467.11 305.144V304.644ZM454.598 300.504L454.944 300.143C452.129 297.445 450.682 293.454 450.682 288.084H450.182H449.682C449.682 293.631 451.18 297.921 454.252 300.865L454.598 300.504ZM450.182 288.084H450.682V244.016H450.182H449.682V288.084H450.182ZM450.182 244.016V244.516H461.682V244.016V243.516H450.182V244.016ZM461.682 244.016H461.182V287.808H461.682H462.182V244.016H461.682ZM461.682 287.808H461.182C461.182 290.22 461.786 292.164 463.059 293.571L463.43 293.236L463.801 292.901C462.744 291.732 462.182 290.058 462.182 287.808H461.682ZM463.43 293.236L463.068 293.581C464.408 294.988 466.237 295.668 468.49 295.668V295.168V294.668C466.45 294.668 464.905 294.06 463.792 292.891L463.43 293.236ZM468.49 295.168V295.668C471.157 295.668 473.419 294.968 475.239 293.537L474.93 293.144L474.621 292.751C473.007 294.019 470.975 294.668 468.49 294.668V295.168ZM474.93 293.144L474.465 293.327L477.685 301.515L478.15 301.332L478.616 301.149L475.396 292.961L474.93 293.144ZM478.15 301.332L477.834 300.945C476.546 301.999 474.954 302.798 473.047 303.335L473.182 303.816L473.318 304.297C475.335 303.73 477.056 302.873 478.467 301.719L478.15 301.332ZM473.182 303.816L473.047 303.335C471.129 303.874 469.151 304.144 467.11 304.144V304.644V305.144C469.24 305.144 471.31 304.862 473.318 304.297L473.182 303.816ZM442.086 264.44H442.586V255.24H442.086H441.586V264.44H442.086ZM442.086 255.24V255.74H474.838V255.24V254.74H442.086V255.24ZM474.838 255.24H474.338V264.44H474.838H475.338V255.24H474.838ZM474.838 264.44V263.94H442.086V264.44V264.94H474.838V264.44ZM517.878 304H517.378V304.5H517.878V304ZM517.878 294.064H518.378V293.99L518.357 293.918L517.878 294.064ZM517.234 291.948H516.734V292.022L516.756 292.094L517.234 291.948ZM514.198 266.74L513.856 267.104L513.862 267.11L514.198 266.74ZM496.81 265.176L496.659 264.7L496.656 264.701L496.81 265.176ZM490.094 268.764L489.654 269.001L489.944 269.54L490.415 269.148L490.094 268.764ZM485.586 260.392L485.282 259.995L484.944 260.254L485.146 260.629L485.586 260.392ZM494.97 255.884L495.101 256.367L495.107 256.365L494.97 255.884ZM522.846 259.472L522.514 259.846L522.521 259.851L522.846 259.472ZM528.734 304V304.5H529.234V304H528.734ZM492.762 302.804L492.551 303.257L492.559 303.261L492.762 302.804ZM486.322 297.56L485.903 297.832L485.907 297.839L485.912 297.845L486.322 297.56ZM486.046 282.472L485.62 282.211L485.615 282.22L486.046 282.472ZM492.578 277.228L492.775 277.688V277.688L492.578 277.228ZM518.798 275.296H519.298V274.796H518.798V275.296ZM518.798 282.932V283.432H519.298V282.932H518.798ZM497.454 284.864L497.791 285.234L497.8 285.226L497.454 284.864ZM497.914 294.432L497.617 294.834V294.834L497.914 294.432ZM512.358 294.34L512.112 293.905L512.106 293.908L512.358 294.34ZM517.234 288.636L517.716 288.501L517.312 287.061L516.769 288.454L517.234 288.636ZM519.166 295.536L519.633 295.715L519.692 295.56L519.648 295.401L519.166 295.536ZM513.186 302.252L512.944 301.814L512.94 301.817L513.186 302.252ZM517.878 304H518.378V294.064H517.878H517.378V304H517.878ZM517.878 294.064L518.357 293.918L517.713 291.802L517.234 291.948L516.756 292.094L517.4 294.21L517.878 294.064ZM517.234 291.948H517.734V274.56H517.234H516.734V291.948H517.234ZM517.234 274.56H517.734C517.734 271.081 516.687 268.326 514.535 266.37L514.198 266.74L513.862 267.11C515.758 268.834 516.734 271.292 516.734 274.56H517.234ZM514.198 266.74L514.541 266.376C512.388 264.353 509.175 263.388 504.998 263.388V263.888V264.388C509.041 264.388 511.961 265.324 513.856 267.104L514.198 266.74ZM504.998 263.888V263.388C502.186 263.388 499.405 263.826 496.659 264.7L496.81 265.176L496.962 265.652C499.613 264.809 502.291 264.388 504.998 264.388V263.888ZM496.81 265.176L496.656 264.701C493.967 265.576 491.67 266.8 489.774 268.38L490.094 268.764L490.415 269.148C492.199 267.661 494.379 266.493 496.965 265.651L496.81 265.176ZM490.094 268.764L490.535 268.527L486.027 260.155L485.586 260.392L485.146 260.629L489.654 269.001L490.094 268.764ZM485.586 260.392L485.891 260.789C488.47 258.809 491.537 257.333 495.101 256.367L494.97 255.884L494.84 255.401C491.166 256.398 487.977 257.927 485.282 259.995L485.586 260.392ZM494.97 255.884L495.107 256.365C498.741 255.335 502.498 254.82 506.378 254.82V254.32V253.82C502.408 253.82 498.56 254.347 494.834 255.403L494.97 255.884ZM506.378 254.32V254.82C513.417 254.82 518.771 256.519 522.514 259.846L522.846 259.472L523.179 259.098C519.194 255.556 513.569 253.82 506.378 253.82V254.32ZM522.846 259.472L522.521 259.851C526.298 263.098 528.234 268.178 528.234 275.204H528.734H529.234C529.234 268.001 527.245 262.593 523.172 259.093L522.846 259.472ZM528.734 275.204H528.234V304H528.734H529.234V275.204H528.734ZM528.734 304V303.5H517.878V304V304.5H528.734V304ZM502.422 304.644V304.144C498.797 304.144 495.649 303.54 492.965 302.347L492.762 302.804L492.559 303.261C495.396 304.521 498.687 305.144 502.422 305.144V304.644ZM492.762 302.804L492.974 302.351C490.283 301.095 488.21 299.401 486.733 297.275L486.322 297.56L485.912 297.845C487.502 300.135 489.722 301.937 492.551 303.257L492.762 302.804ZM486.322 297.56L486.742 297.288C485.325 295.103 484.614 292.653 484.614 289.924H484.114H483.614C483.614 292.838 484.376 295.478 485.903 297.832L486.322 297.56ZM484.114 289.924H484.614C484.614 287.245 485.238 284.849 486.478 282.724L486.046 282.472L485.615 282.22C484.278 284.511 483.614 287.083 483.614 289.924H484.114ZM486.046 282.472L486.473 282.733C487.756 280.634 489.84 278.946 492.775 277.688L492.578 277.228L492.381 276.768C489.306 278.086 487.036 279.894 485.62 282.211L486.046 282.472ZM492.578 277.228L492.775 277.688C495.695 276.436 499.606 275.796 504.538 275.796V275.296V274.796C499.534 274.796 495.473 275.444 492.381 276.768L492.578 277.228ZM504.538 275.296V275.796H518.798V275.296V274.796H504.538V275.296ZM518.798 275.296H518.298V282.932H518.798H519.298V275.296H518.798ZM518.798 282.932V282.432H505.366V282.932V283.432H518.798V282.932ZM505.366 282.932V282.432C503.38 282.432 501.696 282.595 500.326 282.929C498.958 283.263 497.87 283.776 497.109 284.502L497.454 284.864L497.8 285.226C498.389 284.664 499.293 284.211 500.563 283.901C501.83 283.591 503.428 283.432 505.366 283.432V282.932ZM497.454 284.864L497.118 284.494C495.663 285.816 494.93 287.485 494.93 289.464H495.43H495.93C495.93 287.763 496.547 286.365 497.791 285.234L497.454 284.864ZM495.43 289.464H494.93C494.93 291.706 495.832 293.511 497.617 294.834L497.914 294.432L498.212 294.03C496.685 292.899 495.93 291.393 495.93 289.464H495.43ZM497.914 294.432L497.617 294.834C499.389 296.146 501.808 296.772 504.814 296.772V296.272V295.772C501.933 295.772 499.752 295.171 498.212 294.03L497.914 294.432ZM504.814 296.272V296.772C507.715 296.772 510.318 296.109 512.61 294.772L512.358 294.34L512.106 293.908C509.983 295.147 507.557 295.772 504.814 295.772V296.272ZM512.358 294.34L512.605 294.775C514.978 293.428 516.679 291.435 517.7 288.818L517.234 288.636L516.769 288.454C515.827 290.866 514.277 292.676 512.112 293.905L512.358 294.34ZM517.234 288.636L516.753 288.771L518.685 295.671L519.166 295.536L519.648 295.401L517.716 288.501L517.234 288.636ZM519.166 295.536L518.699 295.357C517.641 298.122 515.731 300.273 512.944 301.814L513.186 302.252L513.428 302.69C516.407 301.042 518.484 298.715 519.633 295.715L519.166 295.536ZM513.186 302.252L512.94 301.817C510.216 303.357 506.719 304.144 502.422 304.144V304.644V305.144C506.835 305.144 510.515 304.336 513.432 302.687L513.186 302.252ZM543.493 304H542.993V304.5H543.493V304ZM543.493 235.736V235.236H542.993V235.736H543.493ZM554.993 235.736H555.493V235.236H554.993V235.736ZM554.993 304V304.5H555.493V304H554.993ZM543.493 304H543.993V235.736H543.493H542.993V304H543.493ZM543.493 235.736V236.236H554.993V235.736V235.236H543.493V235.736ZM554.993 235.736H554.493V304H554.993H555.493V235.736H554.993ZM554.993 304V303.5H543.493V304V304.5H554.993V304ZM596.617 304H596.117V304.5H596.617V304ZM596.617 239.6V239.1H596.117V239.6H596.617ZM637.741 242.36L637.534 242.815L637.536 242.816L637.741 242.36ZM647.217 250.272L647.637 250.002V250.002L647.217 250.272ZM647.217 274.744L647.635 275.018L647.637 275.014L647.217 274.744ZM637.741 282.564L637.942 283.022L637.945 283.02L637.741 282.564ZM603.241 285.232L602.884 284.881L602.048 285.732H603.241V285.232ZM608.577 279.804H609.077V278.582L608.22 279.453L608.577 279.804ZM608.577 304V304.5H609.077V304H608.577ZM638.753 304L638.343 304.286L638.492 304.5H638.753V304ZM622.469 280.632V280.132H621.511L622.059 280.918L622.469 280.632ZM635.257 280.632L635.666 280.345L635.517 280.132H635.257V280.632ZM651.633 304V304.5H652.594L652.042 303.713L651.633 304ZM608.577 281.092L608.212 281.434L609.077 282.358V281.092H608.577ZM603.241 275.388V274.888H602.088L602.876 275.73L603.241 275.388ZM634.429 271.984L634.107 271.601L634.103 271.605L634.429 271.984ZM634.429 253.032L634.108 253.415L634.112 253.419L634.429 253.032ZM603.241 249.72L602.87 249.384L602.113 250.22H603.241V249.72ZM608.577 243.832H609.077V242.536L608.206 243.496L608.577 243.832ZM596.617 304H597.117V239.6H596.617H596.117V304H596.617ZM596.617 239.6V240.1H623.113V239.6V239.1H596.617V239.6ZM623.113 239.6V240.1C628.765 240.1 633.566 241.012 637.534 242.815L637.741 242.36L637.948 241.905C633.819 240.028 628.869 239.1 623.113 239.1V239.6ZM637.741 242.36L637.536 242.816C641.567 244.621 644.646 247.198 646.796 250.542L647.217 250.272L647.637 250.002C645.372 246.477 642.134 243.779 637.945 241.904L637.741 242.36ZM647.217 250.272L646.796 250.542C648.945 253.884 650.029 257.866 650.029 262.508H650.529H651.029C651.029 257.705 649.905 253.529 647.637 250.002L647.217 250.272ZM650.529 262.508H650.029C650.029 267.15 648.945 271.132 646.796 274.474L647.217 274.744L647.637 275.014C649.905 271.487 651.029 267.311 651.029 262.508H650.529ZM647.217 274.744L646.798 274.47C644.649 277.754 641.569 280.302 637.536 282.108L637.741 282.564L637.945 283.02C642.131 281.146 645.369 278.48 647.635 275.018L647.217 274.744ZM637.741 282.564L637.54 282.106C633.571 283.85 628.767 284.732 623.113 284.732V285.232V285.732C628.867 285.732 633.815 284.835 637.942 283.022L637.741 282.564ZM623.113 285.232V284.732H603.241V285.232V285.732H623.113V285.232ZM603.241 285.232L603.597 285.583L608.933 280.155L608.577 279.804L608.22 279.453L602.884 284.881L603.241 285.232ZM608.577 279.804H608.077V304H608.577H609.077V279.804H608.577ZM608.577 304V303.5H596.617V304V304.5H608.577V304ZM638.753 304L639.163 303.714L622.879 280.346L622.469 280.632L622.059 280.918L638.343 304.286L638.753 304ZM622.469 280.632V281.132H635.257V280.632V280.132H622.469V280.632ZM635.257 280.632L634.847 280.919L651.223 304.287L651.633 304L652.042 303.713L635.666 280.345L635.257 280.632ZM651.633 304V303.5H638.753V304V304.5H651.633V304ZM608.577 281.092L608.942 280.75L603.606 275.046L603.241 275.388L602.876 275.73L608.212 281.434L608.577 281.092ZM603.241 275.388V275.888H622.561V275.388V274.888H603.241V275.388ZM622.561 275.388V275.888C627.896 275.888 631.99 274.742 634.755 272.363L634.429 271.984L634.103 271.605C631.593 273.765 627.775 274.888 622.561 274.888V275.388ZM634.429 271.984L634.751 272.367C637.58 269.988 638.977 266.679 638.977 262.508H638.477H637.977C637.977 266.433 636.675 269.442 634.107 271.601L634.429 271.984ZM638.477 262.508H638.977C638.977 258.279 637.581 254.965 634.745 252.645L634.429 253.032L634.112 253.419C636.673 255.515 637.977 258.519 637.977 262.508H638.477ZM634.429 253.032L634.75 252.649C631.985 250.334 627.893 249.22 622.561 249.22V249.72V250.22C627.778 250.22 631.598 251.314 634.108 253.415L634.429 253.032ZM622.561 249.72V249.22H603.241V249.72V250.22H622.561V249.72ZM603.241 249.72L603.611 250.056L608.947 244.168L608.577 243.832L608.206 243.496L602.87 249.384L603.241 249.72ZM608.577 243.832H608.077V281.092H608.577H609.077V243.832H608.577ZM662.806 304H662.306V304.5H662.806V304ZM662.806 254.872V254.372H662.306V254.872H662.806ZM674.306 254.872H674.806V254.372H674.306V254.872ZM674.306 304V304.5H674.806V304H674.306ZM663.266 244.752L662.912 245.106L662.92 245.113L663.266 244.752ZM663.266 235L663.611 235.362L663.611 235.361L663.266 235ZM673.846 234.908L673.5 235.27L673.509 235.278L673.518 235.285L673.846 234.908ZM673.938 244.752L674.291 245.106L674.299 245.098L673.938 244.752ZM662.806 304H663.306V254.872H662.806H662.306V304H662.806ZM662.806 254.872V255.372H674.306V254.872V254.372H662.806V254.872ZM674.306 254.872H673.806V304H674.306H674.806V254.872H674.306ZM674.306 304V303.5H662.806V304V304.5H674.306V304ZM668.602 246.776V246.276C666.57 246.276 664.919 245.642 663.611 244.391L663.266 244.752L662.92 245.113C664.433 246.561 666.34 247.276 668.602 247.276V246.776ZM663.266 244.752L663.619 244.398C662.363 243.142 661.742 241.644 661.742 239.876H661.242H660.742C660.742 241.91 661.469 243.663 662.912 245.106L663.266 244.752ZM661.242 239.876H661.742C661.742 238.042 662.366 236.55 663.611 235.362L663.266 235L662.92 234.638C661.467 236.026 660.742 237.785 660.742 239.876H661.242ZM663.266 235L663.611 235.361C664.919 234.11 666.57 233.476 668.602 233.476V232.976V232.476C666.34 232.476 664.433 233.191 662.92 234.639L663.266 235ZM668.602 232.976V233.476C670.641 233.476 672.258 234.084 673.5 235.27L673.846 234.908L674.191 234.546C672.735 233.156 670.856 232.476 668.602 232.476V232.976ZM673.846 234.908L673.518 235.285C674.817 236.415 675.462 237.841 675.462 239.6H675.962H676.462C676.462 237.557 675.696 235.854 674.174 234.531L673.846 234.908ZM675.962 239.6H675.462C675.462 241.5 674.833 243.092 673.576 244.406L673.938 244.752L674.299 245.098C675.741 243.59 676.462 241.747 676.462 239.6H675.962ZM673.938 244.752L673.584 244.398C672.343 245.639 670.7 246.276 668.602 246.276V246.776V247.276C670.92 247.276 672.833 246.563 674.291 245.106L673.938 244.752ZM692.711 303.08L692.57 303.56L692.579 303.562L692.711 303.08ZM683.787 299.124L683.341 298.899L683.145 299.287L683.502 299.535L683.787 299.124ZM688.203 290.384L688.473 289.963L688.007 289.665L687.757 290.159L688.203 290.384ZM696.115 293.88L696.259 293.401V293.401L696.115 293.88ZM713.135 293.788L712.881 293.358L712.873 293.362L713.135 293.788ZM713.963 286.796L713.686 287.212L713.694 287.217L713.703 287.223L713.963 286.796ZM703.659 284.128L703.589 284.623L703.591 284.623L703.659 284.128ZM697.127 282.932L697.003 283.416L697.011 283.418L697.019 283.42L697.127 282.932ZM691.239 280.632L690.987 281.063L690.998 281.07L691.239 280.632ZM687.927 261.588L688.321 261.896L688.325 261.891L687.927 261.588ZM695.379 256.252L695.559 256.719L695.564 256.717L695.379 256.252ZM716.907 255.424L716.801 255.913H716.801L716.907 255.424ZM725.279 258.552L725.726 258.777L725.934 258.366L725.54 258.125L725.279 258.552ZM720.863 267.292L720.605 267.72L721.066 267.999L721.31 267.517L720.863 267.292ZM713.779 264.44L713.664 264.927L713.672 264.928L713.679 264.93L713.779 264.44ZM698.967 265.176L698.708 264.749L698.701 264.753L698.967 265.176ZM698.139 272.444L697.862 272.86V272.86L698.139 272.444ZM702.463 274.192L702.346 274.678V274.678L702.463 274.192ZM708.351 275.296L708.281 275.791L708.288 275.792L708.296 275.793L708.351 275.296ZM714.883 276.492L715.008 276.008V276.008L714.883 276.492ZM720.771 278.792L720.53 279.23L720.539 279.235L720.548 279.239L720.771 278.792ZM724.083 297.468L723.695 297.153L723.69 297.16L724.083 297.468ZM716.447 302.804L716.621 303.273L716.629 303.27L716.447 302.804ZM704.579 304.644V304.144C700.513 304.144 696.602 303.628 692.844 302.598L692.711 303.08L692.579 303.562C696.427 304.617 700.427 305.144 704.579 305.144V304.644ZM692.711 303.08L692.853 302.6C689.142 301.505 686.222 300.206 684.073 298.713L683.787 299.124L683.502 299.535C685.769 301.109 688.798 302.447 692.57 303.56L692.711 303.08ZM683.787 299.124L684.234 299.349L688.65 290.609L688.203 290.384L687.757 290.159L683.341 298.899L683.787 299.124ZM688.203 290.384L687.934 290.805C690.189 292.246 692.87 293.428 695.972 294.359L696.115 293.88L696.259 293.401C693.227 292.492 690.634 291.344 688.473 289.963L688.203 290.384ZM696.115 293.88L695.972 294.359C699.083 295.292 702.198 295.76 705.315 295.76V295.26V294.76C702.3 294.76 699.281 294.308 696.259 293.401L696.115 293.88ZM705.315 295.26V295.76C708.955 295.76 711.68 295.271 713.398 294.214L713.135 293.788L712.873 293.362C711.402 294.268 708.914 294.76 705.315 294.76V295.26ZM713.135 293.788L713.39 294.218C715.169 293.164 716.119 291.696 716.119 289.832H715.619H715.119C715.119 291.28 714.414 292.449 712.881 293.358L713.135 293.788ZM715.619 289.832H716.119C716.119 288.318 715.484 287.139 714.224 286.369L713.963 286.796L713.703 287.223C714.651 287.802 715.119 288.648 715.119 289.832H715.619ZM713.963 286.796L714.241 286.38C713.068 285.598 711.561 285.027 709.741 284.65L709.639 285.14L709.538 285.63C711.276 285.989 712.651 286.522 713.686 287.212L713.963 286.796ZM709.639 285.14L709.741 284.65C707.949 284.28 705.945 283.941 703.728 283.633L703.659 284.128L703.591 284.623C705.79 284.929 707.772 285.264 709.538 285.63L709.639 285.14ZM703.659 284.128L703.73 283.633C701.597 283.328 699.432 282.932 697.236 282.444L697.127 282.932L697.019 283.42C699.239 283.913 701.429 284.314 703.589 284.623L703.659 284.128ZM697.127 282.932L697.252 282.448C695.142 281.905 693.22 281.153 691.481 280.194L691.239 280.632L690.998 281.07C692.817 282.073 694.819 282.855 697.003 283.416L697.127 282.932ZM691.239 280.632L691.492 280.201C689.781 279.197 688.397 277.872 687.336 276.222L686.915 276.492L686.495 276.762C687.642 278.546 689.141 279.981 690.987 281.063L691.239 280.632ZM686.915 276.492L687.336 276.222C686.3 274.61 685.759 272.445 685.759 269.684H685.259H684.759C684.759 272.566 685.323 274.939 686.495 276.762L686.915 276.492ZM685.259 269.684H685.759C685.759 266.658 686.617 264.07 688.321 261.896L687.927 261.588L687.534 261.28C685.68 263.645 684.759 266.454 684.759 269.684H685.259ZM687.927 261.588L688.325 261.891C690.039 259.646 692.441 257.918 695.559 256.719L695.379 256.252L695.2 255.785C691.939 257.04 689.374 258.869 687.53 261.285L687.927 261.588ZM695.379 256.252L695.564 256.717C698.743 255.457 702.511 254.82 706.879 254.82V254.32V253.82C702.416 253.82 698.518 254.471 695.195 255.787L695.379 256.252ZM706.879 254.32V254.82C710.154 254.82 713.461 255.184 716.801 255.913L716.907 255.424L717.014 254.935C713.607 254.192 710.229 253.82 706.879 253.82V254.32ZM716.907 255.424L716.801 255.913C720.137 256.64 722.871 257.666 725.019 258.979L725.279 258.552L725.54 258.125C723.272 256.739 720.425 255.68 717.014 254.935L716.907 255.424ZM725.279 258.552L724.833 258.327L720.417 267.067L720.863 267.292L721.31 267.517L725.726 258.777L725.279 258.552ZM720.863 267.292L721.122 266.864C718.748 265.427 716.334 264.454 713.88 263.95L713.779 264.44L713.679 264.93C716.009 265.408 718.317 266.335 720.605 267.72L720.863 267.292ZM713.779 264.44L713.895 263.953C711.527 263.393 709.158 263.112 706.787 263.112V263.612V264.112C709.078 264.112 711.37 264.383 713.664 264.927L713.779 264.44ZM706.787 263.612V263.112C703.259 263.112 700.542 263.635 698.708 264.749L698.967 265.176L699.227 265.603C700.827 264.632 703.324 264.112 706.787 264.112V263.612ZM698.967 265.176L698.701 264.753C696.938 265.863 695.983 267.325 695.983 269.132H696.483H696.983C696.983 267.75 697.685 266.574 699.234 265.599L698.967 265.176ZM696.483 269.132H695.983C695.983 270.75 696.602 272.02 697.862 272.86L698.139 272.444L698.417 272.028C697.469 271.396 696.983 270.458 696.983 269.132H696.483ZM698.139 272.444L697.862 272.86C699.03 273.638 700.531 274.24 702.346 274.678L702.463 274.192L702.581 273.706C700.839 273.286 699.457 272.722 698.417 272.028L698.139 272.444ZM702.463 274.192L702.346 274.678C704.143 275.112 706.121 275.482 708.281 275.791L708.351 275.296L708.422 274.801C706.288 274.496 704.342 274.131 702.581 273.706L702.463 274.192ZM708.351 275.296L708.296 275.793C710.481 276.036 712.635 276.43 714.759 276.976L714.883 276.492L715.008 276.008C712.839 275.45 710.638 275.047 708.407 274.799L708.351 275.296ZM714.883 276.492L714.759 276.976C716.868 277.519 718.791 278.271 720.53 279.23L720.771 278.792L721.013 278.354C719.194 277.351 717.192 276.569 715.008 276.008L714.883 276.492ZM720.771 278.792L720.548 279.239C722.308 280.119 723.712 281.377 724.767 283.018L725.187 282.748L725.608 282.478C724.455 280.684 722.915 279.305 720.995 278.345L720.771 278.792ZM725.187 282.748L724.767 283.018C725.804 284.631 726.343 286.767 726.343 289.464H726.843H727.343C727.343 286.641 726.779 284.299 725.608 282.478L725.187 282.748ZM726.843 289.464H726.343C726.343 292.422 725.459 294.977 723.695 297.153L724.083 297.468L724.472 297.783C726.388 295.42 727.343 292.639 727.343 289.464H726.843ZM724.083 297.468L723.69 297.16C721.978 299.344 719.514 301.075 716.266 302.338L716.447 302.804L716.629 303.27C720.005 301.957 722.631 300.131 724.477 297.776L724.083 297.468ZM716.447 302.804L716.274 302.335C713.031 303.536 709.137 304.144 704.579 304.144V304.644V305.144C709.222 305.144 713.24 304.525 716.621 303.273L716.447 302.804ZM746.131 293.052L745.631 293.042L745.608 294.235L746.475 293.415L746.131 293.052ZM746.407 278.608L746.068 278.241L745.911 278.385L745.907 278.598L746.407 278.608ZM772.075 254.872V254.372H771.879L771.736 254.505L772.075 254.872ZM785.875 254.872L786.229 255.225L787.079 254.372H785.875V254.872ZM764.071 276.768L764.391 277.152L764.409 277.137L764.425 277.121L764.071 276.768ZM757.999 281.828L757.679 281.444L757.667 281.454L757.656 281.465L757.999 281.828ZM736.747 304H736.247V304.5H736.747V304ZM736.747 235.736V235.236H736.247V235.736H736.747ZM748.247 235.736H748.747V235.236H748.247V235.736ZM748.247 304V304.5H748.747V304H748.247ZM773.823 304L773.434 304.314L773.585 304.5H773.823V304ZM755.883 281.828L755.491 281.518L755.243 281.832L755.494 282.143L755.883 281.828ZM763.151 272.628L763.544 272.319L763.152 271.82L762.759 272.318L763.151 272.628ZM787.807 304V304.5H788.836L788.2 303.691L787.807 304ZM746.131 293.052L746.631 293.062L746.907 278.618L746.407 278.608L745.907 278.598L745.631 293.042L746.131 293.052ZM746.407 278.608L746.747 278.975L772.415 255.239L772.075 254.872L771.736 254.505L746.068 278.241L746.407 278.608ZM772.075 254.872V255.372H785.875V254.872V254.372H772.075V254.872ZM785.875 254.872L785.521 254.519L763.717 276.415L764.071 276.768L764.425 277.121L786.229 255.225L785.875 254.872ZM764.071 276.768L763.751 276.384L757.679 281.444L757.999 281.828L758.319 282.212L764.391 277.152L764.071 276.768ZM757.999 281.828L757.656 281.465L745.788 292.689L746.131 293.052L746.475 293.415L758.343 282.191L757.999 281.828ZM736.747 304H737.247V235.736H736.747H736.247V304H736.747ZM736.747 235.736V236.236H748.247V235.736V235.236H736.747V235.736ZM748.247 235.736H747.747V304H748.247H748.747V235.736H748.247ZM748.247 304V303.5H736.747V304V304.5H748.247V304ZM773.823 304L774.212 303.686L756.272 281.513L755.883 281.828L755.494 282.143L773.434 304.314L773.823 304ZM755.883 281.828L756.275 282.138L763.543 272.938L763.151 272.628L762.759 272.318L755.491 281.518L755.883 281.828ZM763.151 272.628L762.758 272.937L787.414 304.309L787.807 304L788.2 303.691L763.544 272.319L763.151 272.628ZM787.807 304V303.5H773.823V304V304.5H787.807V304Z" fill="black"/>
<defs>
<filter id="filter0_i_10_14" x="33" y="194" width="86.6025" height="154" filterUnits="userSpaceOnUse" color-interpolation-filters="sRGB">
<feFlood flood-opacity="0" result="BackgroundImageFix"/>
<feBlend mode="normal" in="SourceGraphic" in2="BackgroundImageFix" result="shape"/>
<feColorMatrix in="SourceAlpha" type="matrix" values="0 0 0 0 0 0 0 0 0 0 0 0 0 0 0 0 0 0 127 0" result="hardAlpha"/>
<feOffset dy="4"/>
<feGaussianBlur stdDeviation="2"/>
<feComposite in2="hardAlpha" operator="arithmetic" k2="-1" k3="1"/>
<feColorMatrix type="matrix" values="0 0 0 0 0 0 0 0 0 0 0 0 0 0 0 0 0 0 0.25 0"/>
<feBlend mode="normal" in2="shape" result="effect1_innerShadow_10_14"/>
</filter>
<filter id="filter1_i_10_14" x="122" y="194" width="86.6025" height="154" filterUnits="userSpaceOnUse" color-interpolation-filters="sRGB">
<feFlood flood-opacity="0" result="BackgroundImageFix"/>
<feBlend mode="normal" in="SourceGraphic" in2="BackgroundImageFix" result="shape"/>
<feColorMatrix in="SourceAlpha" type="matrix" values="0 0 0 0 0 0 0 0 0 0 0 0 0 0 0 0 0 0 127 0" result="hardAlpha"/>
<feOffset dy="4"/>
<feGaussianBlur stdDeviation="2"/>
<feComposite in2="hardAlpha" operator="arithmetic" k2="-1" k3="1"/>
<feColorMatrix type="matrix" values="0 0 0 0 0 0 0 0 0 0 0 0 0 0 0 0 0 0 0.25 0"/>
<feBlend mode="normal" in2="shape" result="effect1_innerShadow_10_14"/>
</filter>
<filter id="filter2_i_10_14" x="33" y="144" width="173.205" height="104" filterUnits="userSpaceOnUse" color-interpolation-filters="sRGB">
<feFlood flood-opacity="0" result="BackgroundImageFix"/>
<feBlend mode="normal" in="SourceGraphic" in2="BackgroundImageFix" result="shape"/>
<feColorMatrix in="SourceAlpha" type="matrix" values="0 0 0 0 0 0 0 0 0 0 0 0 0 0 0 0 0 0 127 0" result="hardAlpha"/>
<feOffset dy="4"/>
<feGaussianBlur stdDeviation="2"/>
<feComposite in2="hardAlpha" operator="arithmetic" k2="-1" k3="1"/>
<feColorMatrix type="matrix" values="0 0 0 0 0 0 0 0 0 0 0 0 0 0 0 0 0 0 0.25 0"/>
<feBlend mode="normal" in2="shape" result="effect1_innerShadow_10_14"/>
</filter>
<filter id="filter3_i_10_14" x="252.106" y="153.672" width="536.73" height="173.32" filterUnits="userSpaceOnUse" color-interpolation-filters="sRGB">
<feFlood flood-opacity="0" result="BackgroundImageFix"/>
<feBlend mode="normal" in="SourceGraphic" in2="BackgroundImageFix" result="shape"/>
<feColorMatrix in="SourceAlpha" type="matrix" values="0 0 0 0 0 0 0 0 0 0 0 0 0 0 0 0 0 0 127 0" result="hardAlpha"/>
<feOffset dy="4"/>
<feGaussianBlur stdDeviation="2"/>
<feComposite in2="hardAlpha" operator="arithmetic" k2="-1" k3="1"/>
<feColorMatrix type="matrix" values="0 0 0 0 0 0 0 0 0 0 0 0 0 0 0 0 0 0 0.25 0"/>
<feBlend mode="normal" in2="shape" result="effect1_innerShadow_10_14"/>
</filter>
</defs>
</svg>
