<svg width="512" height="512" viewBox="0 0 512 512" fill="none" xmlns="http://www.w3.org/2000/svg">
<g filter="url(#filter0_i_7_27)">
<rect width="512" height="512" fill="white"/>
<rect x="0.5" y="0.5" width="511" height="511" stroke="black"/>
<g filter="url(#filter1_i_7_27)">
<rect width="180" height="180" transform="matrix(0.887319 0.461156 -2.44735e-08 1 84 106)" fill="#CDBABA"/>
<rect width="180" height="180" transform="matrix(0.887319 0.461156 -2.44735e-08 1 84 106)" fill="#FF6A00"/>
</g>
<g filter="url(#filter2_i_7_27)">
<rect width="180" height="180" transform="matrix(0.887319 -0.461156 2.44735e-08 1 246 190.008)" fill="#CDBABA"/>
<rect width="180" height="180" transform="matrix(0.887319 -0.461156 2.44735e-08 1 246 190.008)" fill="#111111"/>
</g>
<g filter="url(#filter3_i_7_27)">
<rect width="180" height="180" transform="matrix(0.887319 0.461156 -0.887319 0.461156 243.717 23)" fill="#CDBABA"/>
<rect width="180" height="180" transform="matrix(0.887319 0.461156 -0.887319 0.461156 243.717 23)" fill="#D05908"/>
</g>
<g filter="url(#filter4_i_7_27)">
<path d="M19.2656 458.752C17.6406 458.752 16.8281 458.492 16.8281 457.972C16.8281 457.451 17.2471 456.899 18.085 456.315C18.9355 455.718 19.4561 455.052 19.6465 454.315C19.8369 453.579 19.9321 450.672 19.9321 445.594C19.9321 440.503 19.8813 437.761 19.7798 437.367C19.5513 436.466 19.1196 435.793 18.4849 435.349C17.3296 434.536 16.752 433.901 16.752 433.444V433.178C16.752 432.721 18.3516 432.492 21.5508 432.492L22.8457 432.435H24.1406L24.5786 432.454H25.0166C26.4639 432.454 27.3398 432.511 27.6445 432.625C27.9619 432.727 28.1206 433.051 28.1206 433.597C28.1206 433.927 27.6509 434.473 26.7114 435.234C26.2036 435.653 25.8608 436.25 25.6831 437.024C25.5054 437.799 25.4165 440.789 25.4165 445.994C25.4165 451.199 25.4863 454.087 25.626 454.658C25.7656 455.229 26.2227 455.845 26.9971 456.505C27.7715 457.166 28.1587 457.711 28.1587 458.143C28.1587 458.651 27.6509 458.905 26.6353 458.905H25.3022L24.8643 458.886H23.9692L22.6743 458.848L20.9604 458.81L20.1226 458.771C19.8433 458.759 19.5576 458.752 19.2656 458.752ZM53.4858 457.667C53.4858 458.137 53.0986 458.486 52.3242 458.714C51.5625 458.93 50.2739 459.038 48.4585 459.038C46.6558 459.038 45.5767 458.911 45.2212 458.657C44.8657 458.403 44.688 458.105 44.688 457.762C44.688 457.407 44.8467 456.874 45.1641 456.163C45.4941 455.452 45.6973 454.88 45.7734 454.449C45.8496 454.017 45.8877 452.557 45.8877 450.069C45.8877 447.581 45.6719 445.886 45.2402 444.984C44.8213 444.07 43.9897 443.613 42.7456 443.613C41.5015 443.613 40.4922 444.153 39.7178 445.232C39.1973 445.956 38.937 447.282 38.937 449.212C38.937 452.398 39.229 454.734 39.813 456.22C40.1685 457.083 40.3462 457.642 40.3462 457.896C40.3462 458.378 40.0542 458.683 39.4702 458.81C38.8862 458.924 37.6167 458.981 35.6616 458.981C33.7192 458.981 32.5449 458.854 32.1387 458.6C31.7324 458.333 31.5293 457.978 31.5293 457.534C31.5293 457.089 31.8657 456.645 32.5386 456.201C33.2114 455.756 33.5923 455.356 33.6812 455.001C33.77 454.633 33.8145 453.021 33.8145 450.164C33.8145 447.295 33.7192 445.619 33.5288 445.137C33.3384 444.642 32.9575 444.07 32.3862 443.423C31.8149 442.775 31.5293 442.445 31.5293 442.433V442.033C31.5293 441.817 31.688 441.62 32.0054 441.442C33.1099 440.808 34.7539 440.49 36.9375 440.49C37.5469 440.49 38.0547 440.789 38.4609 441.385C38.8799 441.982 39.1846 442.28 39.375 442.28C39.5654 442.28 40.0098 442.077 40.708 441.671C41.4189 441.252 41.8062 441.03 41.8696 441.004C42.8853 440.535 43.8311 440.3 44.707 440.3H45.3164C47.5381 440.3 49.125 441.188 50.0771 442.966C50.6865 444.121 50.9912 446.895 50.9912 451.288C50.9912 453.636 51.0674 454.976 51.2197 455.306C51.3721 455.636 51.7847 456.017 52.4575 456.448C53.1431 456.867 53.4858 457.273 53.4858 457.667ZM68.7393 441.062C69.3105 441.392 69.5962 442.09 69.5962 443.156C69.5962 444.223 69.52 444.927 69.3677 445.27C69.2153 445.613 68.917 445.784 68.4727 445.784C67.7617 445.784 66.9937 445.27 66.1685 444.242C65.356 443.213 64.3276 442.699 63.0835 442.699C62.3726 442.699 61.8076 442.883 61.3887 443.251C60.9697 443.62 60.7603 444.026 60.7603 444.47C60.7603 445.232 61.1284 445.867 61.8647 446.375C62.2202 446.616 63.3564 447.143 65.2734 447.955C67.2031 448.755 68.5806 449.586 69.4058 450.45C70.2437 451.3 70.6626 452.462 70.6626 453.935C70.6626 455.407 70.0342 456.689 68.7773 457.781C67.5205 458.873 65.9082 459.419 63.9404 459.419H62.9312C60.4683 459.419 58.6211 459.127 57.3896 458.543C56.5264 458.137 56.0947 457.172 56.0947 455.648C56.0947 454.125 56.3804 453.363 56.9517 453.363C57.6753 453.363 58.5703 453.954 59.6367 455.134C60.7158 456.315 61.8838 456.905 63.1406 456.905C63.9023 456.905 64.5435 456.747 65.064 456.429C65.5972 456.099 65.8638 455.591 65.8638 454.906C65.8638 454.208 65.4956 453.585 64.7593 453.04C64.3657 452.748 63.2993 452.233 61.5601 451.497C59.8335 450.748 58.6021 450.024 57.8657 449.326C56.7612 448.285 56.209 447.009 56.209 445.499C56.209 443.975 56.8564 442.718 58.1514 441.728C59.4463 440.725 60.957 440.224 62.6836 440.224H63.1978C65.9146 440.224 67.7617 440.503 68.7393 441.062ZM74.0332 443.194C73.4746 442.813 73.1953 442.445 73.1953 442.09C73.1953 441.722 73.5317 441.36 74.2046 441.004C74.8774 440.649 75.2964 440.363 75.4614 440.147C75.6265 439.932 75.8867 439.335 76.2422 438.357C76.6104 437.38 76.9976 436.631 77.4038 436.11C77.8101 435.577 78.3433 435.311 79.0034 435.311C79.6636 435.311 80.1396 435.577 80.4316 436.11C80.5586 436.352 80.7236 436.923 80.9268 437.824C81.1426 438.726 81.3965 439.303 81.6885 439.557C81.9805 439.811 82.5391 440.097 83.3643 440.414C84.1895 440.719 84.6147 440.877 84.6401 440.89C85.0718 441.233 85.2876 441.639 85.2876 442.109C85.2876 442.515 84.6846 442.877 83.4785 443.194C82.2852 443.512 81.5171 443.994 81.1743 444.642C80.8442 445.289 80.6792 446.908 80.6792 449.498C80.6792 452.087 80.876 453.77 81.2695 454.544C81.6758 455.318 82.3359 455.706 83.25 455.706L83.9355 455.648C84.2402 455.623 84.5703 455.61 84.9258 455.61C85.7002 455.61 86.0874 455.902 86.0874 456.486C86.0874 457.235 85.6177 457.832 84.6782 458.276C83.3325 458.911 81.9106 459.229 80.4126 459.229C79.7144 459.229 79.0161 459.038 78.3179 458.657C77.6196 458.276 77.0864 457.813 76.7183 457.267C75.9946 456.201 75.6328 454.677 75.6328 452.697L75.6138 452.297C75.6011 452.018 75.5947 451.707 75.5947 451.364V450.24C75.5947 448.044 75.417 446.171 75.0615 444.623C74.9346 444.051 74.5918 443.575 74.0332 443.194ZM90.8862 434.301C90.8862 433.565 91.1719 432.943 91.7432 432.435C92.3271 431.927 92.9556 431.673 93.6284 431.673H94.2378C94.4282 431.711 94.5869 431.73 94.7139 431.73C95.3232 431.73 95.8628 432.003 96.3325 432.549C96.8022 433.095 97.0371 433.616 97.0371 434.111V434.606C97.0117 434.733 96.999 434.828 96.999 434.892C96.999 435.425 96.7007 435.945 96.104 436.453C95.5073 436.961 94.8472 437.215 94.1235 437.215H93.5332C92.8223 437.215 92.2065 436.993 91.686 436.548C91.1782 436.091 90.9243 435.571 90.9243 434.987L90.8862 434.796V434.301ZM94.5044 459.076H92.6953C91.0068 459.076 89.9912 459.032 89.6484 458.943C89.3184 458.841 89.1533 458.568 89.1533 458.124C89.1533 457.667 89.4707 457.121 90.1055 456.486C90.7402 455.852 91.1401 455.217 91.3052 454.582C91.4702 453.935 91.5527 452.265 91.5527 449.574C91.5527 446.87 91.4829 445.276 91.3433 444.794C91.2036 444.312 90.7656 443.899 90.0293 443.556C89.3057 443.201 88.9438 442.782 88.9438 442.299C88.9438 441.804 89.2803 441.442 89.9531 441.214C91.4766 440.706 93.1587 440.452 94.9995 440.452H95.2852C96.0215 440.452 96.4468 440.763 96.561 441.385C96.6245 441.741 96.6562 443.874 96.6562 447.784C96.6562 451.681 96.7388 453.966 96.9038 454.639C97.0815 455.299 97.5259 456.004 98.2368 456.753C98.9478 457.502 99.3032 457.972 99.3032 458.162V458.391C99.3032 458.848 97.7036 459.076 94.5044 459.076ZM102.521 443.194C101.963 442.813 101.684 442.445 101.684 442.09C101.684 441.722 102.02 441.36 102.693 441.004C103.366 440.649 103.785 440.363 103.95 440.147C104.115 439.932 104.375 439.335 104.73 438.357C105.099 437.38 105.486 436.631 105.892 436.11C106.298 435.577 106.832 435.311 107.492 435.311C108.152 435.311 108.628 435.577 108.92 436.11C109.047 436.352 109.212 436.923 109.415 437.824C109.631 438.726 109.885 439.303 110.177 439.557C110.469 439.811 111.027 440.097 111.853 440.414C112.678 440.719 113.103 440.877 113.128 440.89C113.56 441.233 113.776 441.639 113.776 442.109C113.776 442.515 113.173 442.877 111.967 443.194C110.773 443.512 110.005 443.994 109.663 444.642C109.333 445.289 109.167 446.908 109.167 449.498C109.167 452.087 109.364 453.77 109.758 454.544C110.164 455.318 110.824 455.706 111.738 455.706L112.424 455.648C112.729 455.623 113.059 455.61 113.414 455.61C114.188 455.61 114.576 455.902 114.576 456.486C114.576 457.235 114.106 457.832 113.167 458.276C111.821 458.911 110.399 459.229 108.901 459.229C108.203 459.229 107.504 459.038 106.806 458.657C106.108 458.276 105.575 457.813 105.207 457.267C104.483 456.201 104.121 454.677 104.121 452.697L104.102 452.297C104.089 452.018 104.083 451.707 104.083 451.364V450.24C104.083 448.044 103.905 446.171 103.55 444.623C103.423 444.051 103.08 443.575 102.521 443.194ZM138.246 457.553C138.246 458.581 136.792 459.095 133.885 459.095C133.022 459.095 132.432 458.975 132.114 458.733C131.797 458.492 131.537 458.175 131.333 457.781C131.13 457.375 130.959 457.172 130.819 457.172C130.692 457.172 130.305 457.381 129.658 457.8C129.01 458.207 128.318 458.568 127.582 458.886C126.858 459.203 125.906 459.362 124.726 459.362C123.545 459.362 122.542 459.108 121.717 458.6C120.904 458.092 120.263 457.356 119.793 456.391C119.336 455.426 119.108 453.249 119.108 449.859C119.108 446.47 119.032 444.616 118.879 444.299C118.74 443.981 118.333 443.67 117.661 443.366C116.988 443.061 116.651 442.687 116.651 442.242C116.651 441.633 117.032 441.227 117.794 441.023C118.975 440.706 120.441 440.547 122.193 440.547C123.031 440.547 123.577 440.909 123.831 441.633C124.084 442.356 124.211 444.375 124.211 447.688C124.211 451.002 124.319 453.09 124.535 453.954C124.827 455.147 125.468 455.858 126.458 456.086C126.712 456.15 126.973 456.182 127.239 456.182C127.696 456.182 128.166 456.093 128.648 455.915C129.436 455.636 130.026 455.223 130.419 454.677C130.826 454.119 131.029 452.697 131.029 450.412C131.029 448.126 130.915 446.514 130.686 445.575C130.458 444.635 130.134 443.848 129.715 443.213C129.296 442.579 129.086 442.128 129.086 441.861C129.086 440.973 130.724 440.528 134 440.528H134.533C135.193 440.528 135.637 440.662 135.866 440.928C136.107 441.182 136.228 441.842 136.228 442.909L136.151 445.67L136.132 446.241V449.06C136.132 451.853 136.208 453.579 136.361 454.239C136.513 454.899 136.862 455.591 137.408 456.315C137.967 457.039 138.246 457.451 138.246 457.553ZM141.56 443.194C141.001 442.813 140.722 442.445 140.722 442.09C140.722 441.722 141.058 441.36 141.731 441.004C142.404 440.649 142.823 440.363 142.988 440.147C143.153 439.932 143.413 439.335 143.769 438.357C144.137 437.38 144.524 436.631 144.93 436.11C145.336 435.577 145.87 435.311 146.53 435.311C147.19 435.311 147.666 435.577 147.958 436.11C148.085 436.352 148.25 436.923 148.453 437.824C148.669 438.726 148.923 439.303 149.215 439.557C149.507 439.811 150.065 440.097 150.891 440.414C151.716 440.719 152.141 440.877 152.167 440.89C152.598 441.233 152.814 441.639 152.814 442.109C152.814 442.515 152.211 442.877 151.005 443.194C149.812 443.512 149.043 443.994 148.701 444.642C148.371 445.289 148.206 446.908 148.206 449.498C148.206 452.087 148.402 453.77 148.796 454.544C149.202 455.318 149.862 455.706 150.776 455.706L151.462 455.648C151.767 455.623 152.097 455.61 152.452 455.61C153.227 455.61 153.614 455.902 153.614 456.486C153.614 457.235 153.144 457.832 152.205 458.276C150.859 458.911 149.437 459.229 147.939 459.229C147.241 459.229 146.542 459.038 145.844 458.657C145.146 458.276 144.613 457.813 144.245 457.267C143.521 456.201 143.159 454.677 143.159 452.697L143.14 452.297C143.127 452.018 143.121 451.707 143.121 451.364V450.24C143.121 448.044 142.943 446.171 142.588 444.623C142.461 444.051 142.118 443.575 141.56 443.194ZM165.382 442.756H164.83C164.03 442.756 163.262 443.175 162.526 444.013C161.802 444.838 161.44 445.829 161.44 446.984V447.289C161.44 447.758 161.701 447.993 162.221 447.993L162.412 448.031H163.764L163.859 448.012L167.039 447.822C167.229 447.784 167.356 447.765 167.42 447.765C168.067 447.765 168.391 447.428 168.391 446.755V446.127C168.391 445.276 168.086 444.502 167.477 443.804C166.868 443.105 166.169 442.756 165.382 442.756ZM161.669 451.821C161.669 453.09 162.266 454.188 163.459 455.115C164.348 455.813 165.478 456.163 166.849 456.163C167.471 456.163 168.391 455.985 169.61 455.629C170.841 455.274 171.552 455.096 171.743 455.096C172.314 455.096 172.6 455.407 172.6 456.029C172.6 456.766 171.838 457.515 170.314 458.276C168.804 459.025 167.236 459.4 165.611 459.4H164.773C164.748 459.4 164.716 459.4 164.678 459.4C163.649 459.4 162.602 459.19 161.536 458.771C159.428 457.959 157.93 456.537 157.042 454.506C156.432 453.109 156.127 451.783 156.127 450.526V449.65C156.127 448.368 156.35 447.13 156.794 445.937C157.632 443.689 159.111 442.071 161.231 441.081C162.5 440.497 163.833 440.205 165.23 440.205H165.668C167.737 440.205 169.483 440.846 170.905 442.128C171.654 442.813 172.225 443.639 172.619 444.604C173.025 445.568 173.228 446.552 173.228 447.555C173.228 448.545 172.739 449.199 171.762 449.517C170.391 449.961 167.852 450.183 164.145 450.183C163.154 450.183 162.494 450.31 162.164 450.564C161.834 450.805 161.669 451.224 161.669 451.821ZM195.375 442.68H195.013C193.921 442.68 193.026 443.296 192.328 444.527C191.643 445.759 191.3 447.231 191.3 448.945V450.012C191.3 451.941 191.7 453.573 192.5 454.906C193.299 456.239 194.258 456.905 195.375 456.905H195.737C196.714 456.905 197.565 456.41 198.289 455.42C199.025 454.417 199.393 453.084 199.393 451.421L199.431 451.021L199.45 450.221V450.012L199.431 449.802V449.402C199.406 449.123 199.393 448.92 199.393 448.793C199.393 447.104 198.993 445.664 198.193 444.47C197.394 443.277 196.454 442.68 195.375 442.68ZM195.394 440.147H196.346C197.476 440.147 198.638 440.414 199.831 440.947C202.104 441.963 203.665 443.613 204.516 445.898C204.947 447.079 205.163 448.285 205.163 449.517V449.859C205.163 451.18 204.896 452.475 204.363 453.744C203.83 455.014 203.113 456.067 202.211 456.905C200.333 458.606 198.174 459.457 195.737 459.457C195.546 459.457 195.356 459.451 195.166 459.438C193.947 459.438 192.747 459.197 191.566 458.714C190.398 458.219 189.44 457.565 188.691 456.753C187.079 454.976 186.272 452.748 186.272 450.069V449.745L186.292 449.421C186.304 448.241 186.526 447.073 186.958 445.917C187.796 443.708 189.332 442.077 191.566 441.023C192.823 440.439 194.099 440.147 195.394 440.147ZM218.703 430.759H219.236C220.378 430.759 221.381 430.962 222.245 431.369C222.854 431.648 223.159 432.13 223.159 432.816C223.159 433.489 222.987 434.054 222.645 434.511C222.314 434.955 221.864 435.177 221.292 435.177C220.734 435.177 220.074 435.057 219.312 434.815C218.55 434.562 218.131 434.435 218.055 434.435C217.484 434.435 217.001 434.72 216.608 435.292C216.227 435.85 216.037 436.586 216.037 437.5C216.037 438.415 216.183 439.113 216.475 439.595C216.525 439.684 217.167 440.09 218.398 440.814C219.261 441.322 219.693 441.887 219.693 442.509C219.693 442.953 219.166 443.385 218.112 443.804C217.071 444.21 216.481 444.572 216.341 444.889C216.037 445.6 215.884 447.231 215.884 449.783C215.884 450.469 215.878 450.977 215.865 451.307L215.846 451.802L215.865 452.792C215.865 454.023 216.011 454.938 216.303 455.534C216.367 455.674 216.767 456.093 217.503 456.791C218.252 457.477 218.626 458.067 218.626 458.562C218.626 459.044 218.284 459.355 217.598 459.495C216.913 459.635 215.929 459.705 214.646 459.705H213.599C211.809 459.705 210.355 459.628 209.238 459.476C208.68 459.4 208.4 459.089 208.4 458.543C208.4 458.302 208.68 457.87 209.238 457.248C209.81 456.626 210.197 455.839 210.4 454.887C210.603 453.922 210.705 452.151 210.705 449.574C210.705 446.984 210.616 445.435 210.438 444.927C210.26 444.419 209.892 443.975 209.333 443.594C208.775 443.213 208.496 442.813 208.496 442.395C208.496 442.242 208.788 441.722 209.372 440.833C209.968 439.932 210.343 439.132 210.495 438.434C211.282 434.904 212.99 432.556 215.618 431.388C216.57 430.969 217.598 430.759 218.703 430.759ZM255.899 444.4V442.873C255.899 441.286 255.682 439.736 255.248 438.224C254.32 435.004 252.59 432.833 250.06 431.71C248.907 431.201 247.649 430.946 246.286 430.946L245.972 430.969C244.265 430.969 243.306 431.351 243.097 432.114C243.052 432.279 243.029 434.518 243.029 438.83V447.455L243.007 447.792C243.007 448.017 243.007 448.241 243.007 448.466L242.939 450.824C242.939 451.049 242.939 451.273 242.939 451.498L242.917 452.509V452.868C242.917 454.126 243.074 454.957 243.389 455.361C243.703 455.766 244.504 455.968 245.792 455.968H247.14C248.397 455.968 249.595 455.646 250.733 455.002C251.886 454.358 252.8 453.587 253.474 452.688C254.147 451.775 254.716 450.585 255.181 449.117C255.66 447.635 255.899 446.062 255.899 444.4ZM235.078 430.901C234.225 430.467 233.798 429.951 233.798 429.352C233.798 428.738 234.157 428.371 234.876 428.251C236.897 427.907 240.379 427.734 245.32 427.734H246.511C251.737 427.734 255.847 429.112 258.842 431.867C261.837 434.607 263.334 438.381 263.334 443.188C263.334 447.994 261.837 451.85 258.842 454.755C255.847 457.66 251.879 459.112 246.938 459.112H245.163L244.579 459.09L243.366 459.067C242.977 459.052 242.595 459.045 242.221 459.045L237.189 458.888C235.512 458.888 234.517 458.79 234.202 458.596C233.903 458.401 233.753 458.019 233.753 457.45C233.753 457.121 234.187 456.672 235.056 456.103C235.924 455.519 236.471 454.83 236.695 454.036C236.92 453.243 237.032 450.607 237.032 446.13L236.987 443.255L237.055 439.863L237.077 439.302C237.092 438.912 237.1 438.531 237.1 438.156L237.145 436.472C237.145 434.435 236.987 433.043 236.673 432.294C236.463 431.8 235.932 431.336 235.078 430.901ZM269.511 429.868C269.511 429 269.848 428.266 270.521 427.667C271.21 427.068 271.951 426.769 272.745 426.769H273.464C273.688 426.813 273.876 426.836 274.025 426.836C274.744 426.836 275.381 427.158 275.935 427.802C276.489 428.446 276.766 429.06 276.766 429.644V430.228C276.736 430.377 276.721 430.49 276.721 430.564C276.721 431.193 276.369 431.807 275.665 432.406C274.961 433.005 274.183 433.305 273.329 433.305H272.633C271.794 433.305 271.068 433.043 270.454 432.519C269.855 431.979 269.556 431.366 269.556 430.677L269.511 430.452V429.868ZM273.778 459.09H271.645C269.653 459.09 268.455 459.037 268.051 458.933C267.661 458.813 267.467 458.491 267.467 457.967C267.467 457.428 267.841 456.784 268.59 456.035C269.339 455.286 269.81 454.538 270.005 453.789C270.2 453.025 270.297 451.056 270.297 447.882C270.297 444.692 270.215 442.813 270.05 442.244C269.885 441.675 269.368 441.188 268.5 440.784C267.646 440.365 267.22 439.871 267.22 439.302C267.22 438.718 267.617 438.291 268.41 438.021C270.207 437.423 272.191 437.123 274.362 437.123H274.699C275.568 437.123 276.069 437.49 276.204 438.224C276.279 438.643 276.316 441.159 276.316 445.771C276.316 450.368 276.414 453.063 276.608 453.856C276.818 454.635 277.342 455.466 278.181 456.35C279.019 457.233 279.438 457.787 279.438 458.012V458.281C279.438 458.82 277.552 459.09 273.778 459.09ZM295.341 443.659L295.296 442.896C295.296 441.743 294.981 440.769 294.353 439.976C293.739 439.167 293.012 438.763 292.174 438.763H291.904C291.141 438.763 290.467 439.204 289.883 440.088C289.299 440.956 289.007 441.99 289.007 443.188V444.333C289.007 445.771 289.344 446.976 290.018 447.949C290.706 448.923 291.455 449.409 292.264 449.409H292.421C293.185 449.409 293.851 449.042 294.42 448.309C295.004 447.56 295.296 446.699 295.296 445.726L295.318 445.591L295.341 445.434L295.363 444.962V443.816L295.341 443.659ZM296.576 459.202C295.857 459.082 295.229 459.022 294.689 459.022L294.51 459L294.353 458.978L293.342 458.91C293.222 458.895 293.117 458.888 293.027 458.888L292.286 458.82H291.792L291.635 458.843L291.163 458.865L290.557 458.933C289.838 458.933 289.187 459.247 288.603 459.876C288.019 460.52 287.727 461.284 287.727 462.167V462.639C287.727 463.597 288.093 464.331 288.827 464.84C289.576 465.364 290.519 465.626 291.657 465.626H292.646C294.562 465.626 296.239 465.102 297.677 464.054C298.575 463.395 299.024 462.466 299.024 461.269L299.002 461.111C299.002 460.647 298.8 460.213 298.396 459.809C297.991 459.404 297.385 459.202 296.576 459.202ZM304.213 437.752C304.497 438.036 304.64 438.486 304.64 439.1C304.64 439.714 304.34 440.155 303.741 440.425C302.723 440.874 302.184 441.159 302.124 441.278C301.944 441.623 301.854 442.177 301.854 442.94L301.877 443.524C301.922 444.138 301.944 444.588 301.944 444.872C301.944 445.845 301.697 446.796 301.203 447.725C299.855 450.3 297.37 451.805 293.746 452.239C292.144 452.434 291.313 452.539 291.253 452.554C290.31 452.868 289.838 453.34 289.838 453.969C289.838 454.523 290.137 454.905 290.736 455.114C291.335 455.309 292.99 455.496 295.7 455.676C298.425 455.855 300.26 456.2 301.203 456.709C302.161 457.218 302.85 457.81 303.27 458.483C303.704 459.142 303.921 460.071 303.921 461.269C303.921 462.466 303.576 463.56 302.888 464.548C301.48 466.569 299.264 467.999 296.239 468.838C294.742 469.257 293.185 469.467 291.567 469.467H290.871C288.116 469.467 286.005 468.95 284.537 467.917C283.085 466.899 282.358 465.648 282.358 464.166C282.358 463.178 282.68 462.234 283.324 461.336C283.444 461.171 283.758 460.804 284.268 460.235C284.792 459.666 285.054 459.232 285.054 458.933C285.054 458.903 284.784 458.513 284.245 457.765C283.706 457.001 283.437 456.237 283.437 455.474C283.437 454.71 283.841 453.804 284.649 452.756C285.458 451.708 285.862 451.116 285.862 450.981C285.862 450.847 285.465 450.345 284.672 449.477C283.893 448.578 283.324 447.485 282.965 446.197C282.845 445.763 282.785 445.314 282.785 444.85C282.785 444.805 282.785 444.752 282.785 444.692C282.785 443.839 282.957 442.978 283.302 442.109C283.871 440.672 284.792 439.564 286.064 438.785C287.816 437.692 289.853 437.146 292.174 437.146H292.848C292.967 437.146 293.851 437.205 295.498 437.325L296.711 437.46C297.385 437.535 297.774 437.572 297.879 437.572L302.753 437.303C303.457 437.303 303.943 437.452 304.213 437.752ZM310.3 429.868C310.3 429 310.637 428.266 311.311 427.667C311.999 427.068 312.741 426.769 313.534 426.769H314.253C314.478 426.813 314.665 426.836 314.814 426.836C315.533 426.836 316.17 427.158 316.724 427.802C317.278 428.446 317.555 429.06 317.555 429.644V430.228C317.525 430.377 317.51 430.49 317.51 430.564C317.51 431.193 317.158 431.807 316.454 432.406C315.75 433.005 314.972 433.305 314.118 433.305H313.422C312.583 433.305 311.857 433.043 311.243 432.519C310.644 431.979 310.345 431.366 310.345 430.677L310.3 430.452V429.868ZM314.567 459.09H312.434C310.442 459.09 309.244 459.037 308.84 458.933C308.451 458.813 308.256 458.491 308.256 457.967C308.256 457.428 308.63 456.784 309.379 456.035C310.128 455.286 310.599 454.538 310.794 453.789C310.989 453.025 311.086 451.056 311.086 447.882C311.086 444.692 311.004 442.813 310.839 442.244C310.674 441.675 310.158 441.188 309.289 440.784C308.436 440.365 308.009 439.871 308.009 439.302C308.009 438.718 308.406 438.291 309.199 438.021C310.996 437.423 312.98 437.123 315.151 437.123H315.488C316.357 437.123 316.858 437.49 316.993 438.224C317.068 438.643 317.105 441.159 317.105 445.771C317.105 450.368 317.203 453.063 317.397 453.856C317.607 454.635 318.131 455.466 318.97 456.35C319.808 457.233 320.228 457.787 320.228 458.012V458.281C320.228 458.82 318.341 459.09 314.567 459.09ZM324.023 440.357C323.365 439.908 323.035 439.474 323.035 439.055C323.035 438.62 323.432 438.194 324.226 437.774C325.019 437.355 325.513 437.018 325.708 436.764C325.903 436.509 326.21 435.805 326.629 434.652C327.063 433.499 327.52 432.616 327.999 432.002C328.478 431.373 329.107 431.059 329.886 431.059C330.664 431.059 331.226 431.373 331.57 432.002C331.72 432.286 331.915 432.96 332.154 434.023C332.409 435.087 332.708 435.768 333.053 436.067C333.397 436.367 334.056 436.704 335.029 437.078C336.003 437.438 336.504 437.625 336.534 437.64C337.043 438.044 337.298 438.523 337.298 439.077C337.298 439.556 336.587 439.983 335.164 440.357C333.757 440.732 332.851 441.301 332.446 442.064C332.057 442.828 331.862 444.737 331.862 447.792C331.862 450.847 332.094 452.831 332.559 453.744C333.038 454.658 333.816 455.114 334.895 455.114L335.703 455.047C336.062 455.017 336.452 455.002 336.871 455.002C337.785 455.002 338.241 455.346 338.241 456.035C338.241 456.919 337.687 457.622 336.579 458.146C334.992 458.895 333.315 459.27 331.548 459.27C330.724 459.27 329.901 459.045 329.077 458.596C328.254 458.146 327.625 457.6 327.19 456.956C326.337 455.698 325.91 453.901 325.91 451.565L325.888 451.094C325.873 450.764 325.865 450.397 325.865 449.993V448.668C325.865 446.077 325.656 443.869 325.236 442.042C325.087 441.368 324.682 440.807 324.023 440.357ZM354.188 449.813C354.188 449.14 353.979 448.803 353.56 448.803H352.976C352.601 448.878 352.317 448.915 352.122 448.915C350.759 448.915 349.614 449.312 348.686 450.105C347.757 450.899 347.293 451.798 347.293 452.801V453.317C347.293 454.081 347.533 454.74 348.012 455.294C348.491 455.848 349.075 456.125 349.764 456.125H350.482C351.471 456.125 352.317 455.818 353.021 455.204C353.724 454.59 354.076 453.991 354.076 453.407C354.136 453.108 354.166 452.913 354.166 452.823L354.211 452.464V451.498L354.233 451.139V450.15C354.203 450.001 354.188 449.888 354.188 449.813ZM363.308 456.934V457.271C363.308 457.78 362.746 458.259 361.623 458.708C360.5 459.142 359.167 459.359 357.625 459.359C356.682 459.359 355.866 458.933 355.177 458.079C354.802 457.6 354.51 457.36 354.301 457.36C354.091 457.345 353.732 457.518 353.223 457.877C351.516 459.045 349.674 459.629 347.697 459.629C347.682 459.629 347.667 459.636 347.652 459.651C345.706 459.651 344.148 459.15 342.98 458.146C341.812 457.143 341.221 455.736 341.206 453.924C341.206 450.031 344.201 447.582 350.19 446.579C351.628 446.354 352.489 446.182 352.773 446.062C353.642 445.703 354.076 444.902 354.076 443.659C354.076 442.416 353.792 441.525 353.223 440.986C352.669 440.432 352.017 440.155 351.269 440.155C350.086 440.155 349.015 440.792 348.057 442.064C347.098 443.322 345.983 443.951 344.71 443.951C343.961 443.951 343.392 443.749 343.003 443.345C342.629 442.925 342.441 442.499 342.441 442.064C342.441 440.747 343.13 439.699 344.508 438.92C346.799 437.632 349.225 436.988 351.785 436.988H352.953C354.241 436.988 355.469 437.265 356.637 437.819C357.82 438.358 358.733 439.189 359.377 440.312C360.021 441.436 360.343 443.944 360.343 447.837C360.343 451.73 360.463 453.976 360.702 454.575C360.957 455.159 361.451 455.593 362.185 455.878C362.933 456.147 363.308 456.499 363.308 456.934ZM366.048 427.847C366.048 427.308 366.437 426.918 367.216 426.679C369.327 426.035 371.349 425.713 373.28 425.713C374.418 425.713 375.047 426.207 375.167 427.195C375.197 427.435 375.212 431.448 375.212 439.234C375.212 447.021 375.339 451.625 375.594 453.048C375.863 454.455 376.223 455.414 376.672 455.923C377.81 457.211 378.379 457.884 378.379 457.944C378.379 458.663 376.372 459.022 372.359 459.022H371.91L371.438 459C369.043 459 367.605 458.94 367.126 458.82C366.662 458.701 366.43 458.424 366.43 457.989C366.43 457.54 366.797 456.866 367.53 455.968C368.264 455.054 368.728 454.096 368.923 453.093C369.118 452.075 369.215 448.331 369.215 441.862C369.215 435.394 369.11 431.807 368.9 431.104C368.691 430.385 368.159 429.756 367.306 429.217C366.467 428.663 366.048 428.206 366.048 427.847ZM405.983 430.856H405.287C404.269 430.856 403.647 430.999 403.423 431.283C403.213 431.553 403.108 432.271 403.108 433.439V441.593C403.108 442.192 403.236 442.618 403.49 442.873C403.745 443.128 404.306 443.255 405.175 443.255H406.051L406.23 443.232L406.747 443.21C406.867 443.195 406.979 443.188 407.084 443.188C408.147 443.188 409.18 442.686 410.184 441.683C411.202 440.664 411.711 439.339 411.711 437.707V436.629C411.711 435.012 411.202 433.649 410.184 432.541C409.165 431.418 407.765 430.856 405.983 430.856ZM404.928 427.869H406.455C410.288 427.869 413.283 428.603 415.439 430.07C417.596 431.538 418.674 433.604 418.674 436.27C418.674 437.782 418.359 439.107 417.73 440.245C417.102 441.383 416.465 442.244 415.821 442.828C414.354 444.161 413.62 444.887 413.62 445.007C413.62 445.561 413.89 446.295 414.429 447.208C414.983 448.121 415.612 449.215 416.315 450.487C417.019 451.76 417.521 452.599 417.82 453.003C418.599 454.051 419.445 454.777 420.358 455.182C421.991 455.885 422.807 456.41 422.807 456.754C422.807 457.712 422.402 458.311 421.594 458.551C420.441 458.895 419.093 459.067 417.551 459.067C416.008 459.067 414.766 458.588 413.822 457.63C412.879 456.657 411.786 454.882 410.543 452.307C409.3 449.716 408.499 448.196 408.14 447.747C407.391 446.774 406.41 446.287 405.197 446.287C404.538 446.287 404.089 446.617 403.85 447.275C403.625 447.919 403.513 449.536 403.513 452.127C403.513 452.756 403.835 453.744 404.479 455.092L405.31 456.597C405.714 457.345 405.916 457.765 405.916 457.854C405.916 458.633 404.696 459.022 402.255 459.022C398.002 459.022 395.509 458.918 394.775 458.708C394.057 458.498 393.697 458.079 393.697 457.45C393.697 456.821 394.154 456.23 395.067 455.676C395.981 455.122 396.535 454.47 396.729 453.722C396.924 452.958 397.021 449.671 397.021 443.861C397.021 438.036 396.909 434.622 396.685 433.619C396.46 432.616 396.056 431.83 395.472 431.261C394.424 430.243 393.899 429.591 393.899 429.307C393.899 428.708 394.521 428.318 395.764 428.139C397.021 427.959 400.076 427.869 404.928 427.869ZM427.95 429.868C427.95 429 428.287 428.266 428.961 427.667C429.65 427.068 430.391 426.769 431.185 426.769H431.903C432.128 426.813 432.315 426.836 432.465 426.836C433.184 426.836 433.82 427.158 434.374 427.802C434.928 428.446 435.205 429.06 435.205 429.644V430.228C435.175 430.377 435.16 430.49 435.16 430.564C435.16 431.193 434.808 431.807 434.104 432.406C433.401 433.005 432.622 433.305 431.769 433.305H431.072C430.234 433.305 429.507 433.043 428.894 432.519C428.295 431.979 427.995 431.366 427.995 430.677L427.95 430.452V429.868ZM432.218 459.09H430.084C428.092 459.09 426.895 459.037 426.49 458.933C426.101 458.813 425.906 458.491 425.906 457.967C425.906 457.428 426.281 456.784 427.029 456.035C427.778 455.286 428.25 454.538 428.444 453.789C428.639 453.025 428.736 451.056 428.736 447.882C428.736 444.692 428.654 442.813 428.489 442.244C428.325 441.675 427.808 441.188 426.939 440.784C426.086 440.365 425.659 439.871 425.659 439.302C425.659 438.718 426.056 438.291 426.85 438.021C428.646 437.423 430.631 437.123 432.802 437.123H433.139C434.007 437.123 434.509 437.49 434.644 438.224C434.718 438.643 434.756 441.159 434.756 445.771C434.756 450.368 434.853 453.063 435.048 453.856C435.257 454.635 435.782 455.466 436.62 456.35C437.459 457.233 437.878 457.787 437.878 458.012V458.281C437.878 458.82 435.991 459.09 432.218 459.09ZM456.184 437.842C456.857 438.231 457.194 439.055 457.194 440.312C457.194 441.57 457.104 442.401 456.925 442.806C456.745 443.21 456.393 443.412 455.869 443.412C455.031 443.412 454.125 442.806 453.151 441.593C452.193 440.38 450.98 439.773 449.513 439.773C448.674 439.773 448.008 439.991 447.514 440.425C447.02 440.859 446.772 441.338 446.772 441.862C446.772 442.761 447.207 443.509 448.075 444.108C448.494 444.393 449.835 445.014 452.096 445.973C454.372 446.916 455.996 447.897 456.97 448.915C457.958 449.918 458.452 451.288 458.452 453.025C458.452 454.762 457.711 456.275 456.229 457.562C454.746 458.85 452.844 459.494 450.523 459.494H449.333C446.428 459.494 444.249 459.15 442.797 458.461C441.779 457.982 441.27 456.844 441.27 455.047C441.27 453.25 441.606 452.352 442.28 452.352C443.134 452.352 444.189 453.048 445.447 454.44C446.72 455.833 448.098 456.529 449.58 456.529C450.479 456.529 451.235 456.342 451.849 455.968C452.478 455.578 452.792 454.979 452.792 454.171C452.792 453.347 452.358 452.614 451.489 451.97C451.025 451.625 449.767 451.019 447.716 450.15C445.679 449.267 444.227 448.413 443.358 447.59C442.056 446.362 441.404 444.857 441.404 443.075C441.404 441.278 442.168 439.796 443.695 438.628C445.223 437.445 447.005 436.854 449.041 436.854H449.647C452.852 436.854 455.031 437.183 456.184 437.842ZM480.98 437.415C483.915 437.415 485.39 437.842 485.405 438.695C485.405 439.189 484.469 439.998 482.598 441.121C478.854 443.382 476.982 445.216 476.982 446.624C476.982 447.133 478.51 449.132 481.564 452.621C482.628 453.834 483.788 454.92 485.046 455.878C486.319 456.836 486.955 457.51 486.955 457.899C486.955 458.274 486.768 458.558 486.394 458.753C486.034 458.933 484.694 459.022 482.373 459.022H481.497C479.251 459.022 477.761 458.656 477.027 457.922C476.593 457.488 476.271 456.739 476.062 455.676C475.867 454.598 475.53 453.684 475.051 452.936C473.958 451.214 472.917 450.353 471.929 450.353C471.315 450.353 471.008 451.079 471.008 452.531C471.008 453.984 471.315 455.309 471.929 456.507C472.198 457.031 472.333 457.353 472.333 457.473C472.333 458.132 471.839 458.581 470.851 458.82C470.341 458.94 469.136 459 467.234 459C465.348 459 464.112 458.925 463.528 458.775C462.66 458.551 462.226 458.161 462.226 457.607C462.226 457.293 462.51 456.664 463.079 455.721C463.663 454.762 464 454.029 464.09 453.52C464.314 452.232 464.427 448.196 464.427 441.413C464.427 434.63 464.337 431.006 464.157 430.542C463.978 430.063 463.446 429.591 462.562 429.127C461.694 428.663 461.26 428.154 461.26 427.6C461.26 427.031 461.664 426.604 462.473 426.319C464.015 425.765 465.707 425.488 467.549 425.488H468.335C469.278 425.488 469.885 426.035 470.154 427.128C470.349 427.907 470.446 430.856 470.446 435.978C470.446 441.084 470.469 443.801 470.514 444.131C470.648 445.179 470.963 445.703 471.457 445.703C472.131 445.703 473.291 444.79 474.938 442.963C475.957 441.84 476.466 440.882 476.466 440.088L476.151 438.74C476.151 438.231 476.458 437.887 477.072 437.707C477.701 437.512 479.004 437.415 480.98 437.415Z" fill="#111111"/>
</g>
</g>
<defs>
<filter id="filter0_i_7_27" x="0" y="0" width="512" height="516" filterUnits="userSpaceOnUse" color-interpolation-filters="sRGB">
<feFlood flood-opacity="0" result="BackgroundImageFix"/>
<feBlend mode="normal" in="SourceGraphic" in2="BackgroundImageFix" result="shape"/>
<feColorMatrix in="SourceAlpha" type="matrix" values="0 0 0 0 0 0 0 0 0 0 0 0 0 0 0 0 0 0 127 0" result="hardAlpha"/>
<feOffset dy="4"/>
<feGaussianBlur stdDeviation="2"/>
<feComposite in2="hardAlpha" operator="arithmetic" k2="-1" k3="1"/>
<feColorMatrix type="matrix" values="0 0 0 0 0 0 0 0 0 0 0 0 0 0 0 0 0 0 0.25 0"/>
<feBlend mode="normal" in2="shape" result="effect1_innerShadow_7_27"/>
</filter>
<filter id="filter1_i_7_27" x="84" y="106" width="159.717" height="267.008" filterUnits="userSpaceOnUse" color-interpolation-filters="sRGB">
<feFlood flood-opacity="0" result="BackgroundImageFix"/>
<feBlend mode="normal" in="SourceGraphic" in2="BackgroundImageFix" result="shape"/>
<feColorMatrix in="SourceAlpha" type="matrix" values="0 0 0 0 0 0 0 0 0 0 0 0 0 0 0 0 0 0 127 0" result="hardAlpha"/>
<feOffset dy="4"/>
<feGaussianBlur stdDeviation="2"/>
<feComposite in2="hardAlpha" operator="arithmetic" k2="-1" k3="1"/>
<feColorMatrix type="matrix" values="0 0 0 0 0 0 0 0 0 0 0 0 0 0 0 0 0 0 0.25 0"/>
<feBlend mode="normal" in2="shape" result="effect1_innerShadow_7_27"/>
</filter>
<filter id="filter2_i_7_27" x="246" y="107" width="159.717" height="267.008" filterUnits="userSpaceOnUse" color-interpolation-filters="sRGB">
<feFlood flood-opacity="0" result="BackgroundImageFix"/>
<feBlend mode="normal" in="SourceGraphic" in2="BackgroundImageFix" result="shape"/>
<feColorMatrix in="SourceAlpha" type="matrix" values="0 0 0 0 0 0 0 0 0 0 0 0 0 0 0 0 0 0 127 0" result="hardAlpha"/>
<feOffset dy="4"/>
<feGaussianBlur stdDeviation="2"/>
<feComposite in2="hardAlpha" operator="arithmetic" k2="-1" k3="1"/>
<feColorMatrix type="matrix" values="0 0 0 0 0 0 0 0 0 0 0 0 0 0 0 0 0 0 0.25 0"/>
<feBlend mode="normal" in2="shape" result="effect1_innerShadow_7_27"/>
</filter>
<filter id="filter3_i_7_27" x="84" y="23" width="319.435" height="170.016" filterUnits="userSpaceOnUse" color-interpolation-filters="sRGB">
<feFlood flood-opacity="0" result="BackgroundImageFix"/>
<feBlend mode="normal" in="SourceGraphic" in2="BackgroundImageFix" result="shape"/>
<feColorMatrix in="SourceAlpha" type="matrix" values="0 0 0 0 0 0 0 0 0 0 0 0 0 0 0 0 0 0 127 0" result="hardAlpha"/>
<feOffset dy="4"/>
<feGaussianBlur stdDeviation="2"/>
<feComposite in2="hardAlpha" operator="arithmetic" k2="-1" k3="1"/>
<feColorMatrix type="matrix" values="0 0 0 0 0 0 0 0 0 0 0 0 0 0 0 0 0 0 0.25 0"/>
<feBlend mode="normal" in2="shape" result="effect1_innerShadow_7_27"/>
</filter>
<filter id="filter4_i_7_27" x="16.752" y="425.488" width="470.203" height="47.9785" filterUnits="userSpaceOnUse" color-interpolation-filters="sRGB">
<feFlood flood-opacity="0" result="BackgroundImageFix"/>
<feBlend mode="normal" in="SourceGraphic" in2="BackgroundImageFix" result="shape"/>
<feColorMatrix in="SourceAlpha" type="matrix" values="0 0 0 0 0 0 0 0 0 0 0 0 0 0 0 0 0 0 127 0" result="hardAlpha"/>
<feOffset dy="4"/>
<feGaussianBlur stdDeviation="2"/>
<feComposite in2="hardAlpha" operator="arithmetic" k2="-1" k3="1"/>
<feColorMatrix type="matrix" values="0 0 0 0 0 0 0 0 0 0 0 0 0 0 0 0 0 0 0.25 0"/>
<feBlend mode="normal" in2="shape" result="effect1_innerShadow_7_27"/>
</filter>
</defs>
</svg>
